<?xml version="1.0" encoding="UTF-8"?>
<svg width="58px" height="57px" viewBox="0 0 58 57" version="1.1" xmlns="http://www.w3.org/2000/svg" xmlns:xlink="http://www.w3.org/1999/xlink">
    <!-- Generator: Sketch 50.2 (55047) - http://www.bohemiancoding.com/sketch -->
    <title>区域</title>
    <desc>Created with Sketch.</desc>
    <defs></defs>
    <g id="Symbols" stroke="none" stroke-width="1" fill="none" fill-rule="evenodd">
        <g id="常用" transform="translate(-139.000000, -100.000000)">
            <g id="间距-&lt;h40-&gt;">
                <g transform="translate(32.000000, 100.000000)">
                    <g id="Group-6" transform="translate(104.000000, 0.000000)">
                        <g id="区域" transform="translate(3.000000, 0.000000)">
                            <circle id="Oval" fill="#1890FF" cx="28.92" cy="28.5" r="28.5"></circle>
                            <g id="地图类_局部区域图-" transform="translate(12.960000, 12.540000)" fill="#FFFFFF" fill-rule="nonzero">
                                <rect id="Rectangle-path" opacity="0" x="0" y="0" width="31.92" height="31.92"></rect>
                                <path d="M27.93,23.94 L27.93,21.663705 L27.94197,21.65772 L27.93,21.62979 L27.93,12.29718 L27.93,12.283215 L27.93,11.77848 L27.93,11.708655 L27.93,9.78747 L27.93,7.9401 L27.93,7.926135 L27.93,6.81891 L27.93,5.985 L27.59484,5.985 L27.41928,5.985 L26.495595,5.985 L21.057225,5.985 L18.878685,5.985 L16.700145,5.985 L14.521605,5.985 L10.16253,5.985 L7.98399,5.985 L3.99,5.985 L3.99,16.277205 L3.99,18.455745 L3.99,20.634285 L3.99,21.69363 L3.99,23.94 L15.87222,23.94 L27.93,23.94 Z M25.935,17.158995 L24.46269,13.807395 L25.935,13.161015 L25.935,17.158995 Z M22.876665,7.98 L22.086645,8.32713 L21.935025,7.98 L22.876665,7.98 Z M15.39741,7.98 L16.60638,10.735095 L12.953535,12.339075 L11.04033,7.98 L15.39741,7.98 Z M5.985,11.35554 L7.475265,14.74704 L5.985,15.399405 L5.985,11.35554 Z M12.81588,21.945 L10.906665,17.5959 L9.079245,18.399885 L10.63734,21.945 L5.985,21.945 L5.985,21.93702 L9.881235,20.22531 L9.079245,18.399885 L5.985,19.75848 L5.985,17.57994 L10.10268,15.770475 L6.681255,7.98 L8.859795,7.98 L11.9301,14.968485 L13.75752,14.166495 L19.237785,11.75853 L18.4338,9.93111 L17.57595,7.98 L19.75449,7.98 L21.04725,10.95654 L25.935,8.80194 L25.935,10.98048 L21.84924,12.781965 L25.889115,21.945 L23.710575,21.945 L20.03778,13.58595 L14.55951,15.99192 L12.73209,16.79391 L14.99442,21.945 L12.81588,21.945 Z M19.014345,16.213365 L21.532035,21.945 L17.17296,21.945 L15.3615,17.81934 L19.014345,16.213365 Z M0,1.995 L0,27.93 L31.92,27.93 L31.92,1.995 L0,1.995 Z M29.925,25.935 L1.995,25.935 L1.995,3.99 L29.925,3.99 L29.925,25.935 Z" id="Shape"></path>
                            </g>
                        </g>
                    </g>
                </g>
            </g>
        </g>
    </g>
</svg>