<?xml version="1.0" standalone="no"?><!DOCTYPE svg PUBLIC "-//W3C//DTD SVG 1.1//EN" "http://www.w3.org/Graphics/SVG/1.1/DTD/svg11.dtd"><svg class="icon" width="200px" height="200.00px" viewBox="0 0 1024 1024" version="1.1" xmlns="http://www.w3.org/2000/svg"><path fill="#cdcdcd" d="M722.285714 475.428571H301.714286a9.142857 9.142857 0 0 0-9.142857 9.142858v54.857142c0 5.010286 4.132571 9.142857 9.142857 9.142858h420.571428a9.142857 9.142857 0 0 0 9.142857-9.142858v-54.857142a9.142857 9.142857 0 0 0-9.142857-9.142858zM512 0C229.266286 0 0 229.266286 0 512s229.266286 512 512 512 512-229.266286 512-512S794.733714 0 512 0z m0 937.142857C277.248 937.142857 86.857143 746.752 86.857143 512S277.248 86.857143 512 86.857143 937.142857 277.248 937.142857 512 746.752 937.142857 512 937.142857z" /></svg>