<?xml version="1.0" standalone="no"?><!DOCTYPE svg PUBLIC "-//W3C//DTD SVG 1.1//EN" "http://www.w3.org/Graphics/SVG/1.1/DTD/svg11.dtd"><svg t="1564109334145" class="icon" viewBox="0 0 1024 1024" version="1.1" xmlns="http://www.w3.org/2000/svg" p-id="2353" xmlns:xlink="http://www.w3.org/1999/xlink" width="32" height="32"><defs><style type="text/css"></style></defs><path d="M941.7 129h-563c-79.6 0-142.1 62.5-142.1 142.1v96.6L71.7 470.1c-5.7 5.7-11.4 17.1-11.4 22.7v227.4c0 17.1 11.4 34.1 28.4 34.1 17.1 0 28.4-11.4 28.4-28.4V515.6l165-108c5.7-5.7 11.4-17.1 11.4-22.7V271.1c0-51.2 39.8-85.3 85.3-85.3h534.4v511.7h-62.5c-2 0-3.9 0.2-5.8 0.5-21.5-50.8-71.4-85.7-130.8-85.7-59.3 0-109 34.6-130.6 85.2H446.8c-21.6-50.6-71.3-85.2-130.6-85.2-79.6 0-142.1 62.5-142.1 142.1s62.5 142.1 142.1 142.1S458.3 834 458.3 754.4H572c0 79.6 62.6 142.1 142.2 142.1s142.1-62.5 142-142.1v-0.1h85.5c17.1 0 28.4-11.4 28.4-28.4V157.4c0-17.1-11.4-28.4-28.4-28.4zM316.2 839.6c-45.5 0-85.3-39.8-85.3-85.3s39.8-85.3 85.3-85.3 85.3 39.8 85.3 85.3-39.8 85.3-85.3 85.3z m398 0c-45.5 0-85.3-39.8-85.3-85.3s39.8-85.3 85.3-85.3 85.3 39.8 85.3 85.3-39.8 85.3-85.3 85.3z" p-id="2354" fill="#ffffff"></path></svg>