<?xml version="1.0" encoding="UTF-8"?>
<svg width="18px" height="18px" viewBox="0 0 18 18" version="1.1" xmlns="http://www.w3.org/2000/svg" xmlns:xlink="http://www.w3.org/1999/xlink">
    <!-- Generator: Sketch 50 (54983) - http://www.bohemiancoding.com/sketch -->
    <title>船舶管理</title>
    <desc>Created with Sketch.</desc>
    <defs>
        <linearGradient x1="100%" y1="100%" x2="0%" y2="0%" id="linearGradient-1">
            <stop stop-color="#029CF5" offset="0%"></stop>
            <stop stop-color="#15EDED" offset="100%"></stop>
        </linearGradient>
    </defs>
    <g id="Page-1" stroke="none" stroke-width="1" fill="none" fill-rule="evenodd">
        <g id="首页" transform="translate(-32.000000, -120.000000)" fill-rule="nonzero">
            <g id="母版">
                <g id="Group-19">
                    <g transform="translate(31.032292, 119.000000)">
                        <g id="船舶管理">
                            <rect id="Rectangle-path" fill="#000000" opacity="0" x="0" y="0" width="20.0208333" height="20"></rect>
                            <path d="M16.9297262,15.9375 C16.6149455,15.9375 16.3353577,15.9609375 16.0831421,16 L18.5955221,11.1640625 C18.6854594,10.9921875 18.6991455,10.7910156 18.6365804,10.6074219 C18.5720601,10.4238281 18.4371541,10.2753906 18.2592346,10.1972656 L14.378243,8.46875 L14.378243,4.4921875 C14.378243,4.2578125 14.2628886,4.04101563 14.0693278,3.91015625 L10.3545247,1.390625 C10.1179504,1.23046875 9.8109904,1.23046875 9.5744161,1.38867188 L5.82050985,3.90820313 C5.62694906,4.0390625 5.50963949,4.2578125 5.50963949,4.4921875 L5.50963949,8.49023438 L1.6657959,10.1972656 C1.48983154,10.2753906 1.35297038,10.4238281 1.28845011,10.6054688 C1.22392985,10.7871094 1.23761597,10.9882813 1.32559814,11.1621094 L4.35218506,17.078125 C4.00221151,17.2402344 3.60140381,17.3457031 2.99530436,17.3457031 C2.61600342,17.3457031 2.32272949,17.3027344 2.08615519,17.2402344 C1.76355387,17.1542969 1.42531128,17.3125 1.27867432,17.6113281 C1.08315837,18.0097656 1.30213623,18.4863281 1.73031616,18.5996094 C2.1193929,18.703125 2.5299764,18.75 2.99725952,18.75 C4.35218506,18.75 5.05799764,18.3222656 5.68169352,17.9453125 C6.23695882,17.609375 6.67686971,17.34375 7.64271851,17.34375 C8.6085673,17.34375 9.04847819,17.609375 9.60374349,17.9453125 C10.2235291,18.3222656 10.9293416,18.75 12.2842672,18.75 C12.3898458,18.75 12.4915141,18.7480469 12.5892721,18.7421875 L12.6264201,18.7421875 C12.8141154,18.7421875 13.0037659,18.71875 13.189506,18.6777344 C13.9891663,18.5390625 14.5033732,18.2285156 14.9706563,17.9453125 C15.5239665,17.609375 15.9619222,17.34375 16.9297262,17.34375 C17.3090271,17.34375 17.602301,17.3867188 17.8408305,17.4492188 C18.1634318,17.5351562 18.5016744,17.3769531 18.6483114,17.078125 C18.8438273,16.6796875 18.6248494,16.203125 18.1966695,16.0898438 C17.8075928,15.9863281 17.3950541,15.9375 16.9297262,15.9375 Z M10.6438883,16.9296875 C10.5383097,16.8710938 10.4346863,16.8066406 10.3251973,16.7402344 C10.0104167,16.5488281 9.67412923,16.3457031 9.24399414,16.1914062 L9.24399414,10.546875 C9.24399414,10.1582031 9.55681966,9.84375 9.94394124,9.84375 C10.3310628,9.84375 10.6438883,10.1582031 10.6438883,10.546875 L10.6438883,16.9296875 Z M12.9763936,7.84570312 L10.2548116,6.63476562 C10.0749369,6.5546875 9.86769002,6.5546875 9.68781535,6.63476562 L6.90953369,7.86914062 L6.90953369,4.8671875 L9.96153768,2.81835938 L12.9783488,4.86523438 L12.9783488,7.84570312 L12.9763936,7.84570312 Z" id="Shape" fill="url(#linearGradient-1)"></path>
                        </g>
                    </g>
                </g>
            </g>
        </g>
    </g>
</svg>