<?xml version="1.0" encoding="UTF-8"?>
<svg width="20px" height="16px" viewBox="0 0 20 16" version="1.1" xmlns="http://www.w3.org/2000/svg" xmlns:xlink="http://www.w3.org/1999/xlink">
    <!-- Generator: Sketch 50 (54983) - http://www.bohemiancoding.com/sketch -->
    <title>船员管理</title>
    <desc>Created with Sketch.</desc>
    <defs>
        <linearGradient x1="100%" y1="100%" x2="0%" y2="0%" id="linearGradient-1">
            <stop stop-color="#8739E5" offset="0%"></stop>
            <stop stop-color="#5496FF" offset="100%"></stop>
        </linearGradient>
    </defs>
    <g id="Page-1" stroke="none" stroke-width="1" fill="none" fill-rule="evenodd">
        <g id="首页" transform="translate(-31.000000, -212.000000)" fill-rule="nonzero">
            <g id="母版">
                <g id="Group-19">
                    <g transform="translate(31.032292, 119.000000)">
                        <g id="船员管理" transform="translate(0.000000, 89.000000)">
                            <rect id="Rectangle-path" fill="#000000" opacity="0" x="0" y="0" width="20.0208333" height="20"></rect>
                            <path d="M5.72238241,14.8595369 L0.57656469,14.8595369 C0.33969433,14.8595369 0.147672963,15.0513585 0.147672963,15.2879824 C0.147672963,15.5246062 0.33969433,15.7164278 0.57656469,15.7164278 L5.72238241,15.7164278 C5.95925277,15.7164278 6.15127413,15.5246062 6.15127413,15.2879824 C6.15127413,15.0513585 5.95925277,14.8595369 5.72238241,14.8595369 Z M0.57656469,11.4324146 C0.33969433,11.4324146 0.147672963,11.6242361 0.147672963,11.86086 C0.147672963,12.0974839 0.33969433,12.2893054 0.57656469,12.2893054 L6.59959068,12.2893054 C6.4994473,12.0087726 6.41572027,11.7226593 6.34883362,11.4324146 L0.57656469,11.4324146 Z M0.57656469,4.57905182 C0.33981624,4.57905182 0.1478937,4.77077464 0.1478937,5.00727674 C0.1478937,5.24377883 0.33981624,5.43550166 0.57656469,5.43550166 L7.45251791,5.43550166 C7.65515436,5.1325248 7.88472068,4.8489526 8.12753124,4.57905182 L0.57656469,4.57905182 Z M0.57656469,8.86262404 L6.20138139,8.86262404 C6.23360897,8.57155459 6.28526139,8.2862183 6.34883362,8.0061742 L0.57656469,8.0061742 C0.33981624,8.0061742 0.1478937,8.19789703 0.1478937,8.43439912 C0.1478937,8.67090121 0.33981624,8.86262404 0.57656469,8.86262404 Z M15.8612679,13.4906284 C17.2214484,12.7730981 18.1578142,11.3622933 18.1578142,9.71907387 C18.1578142,7.35303197 16.237845,5.43550166 13.8693385,5.43550166 C11.5012734,5.43550166 9.58174568,7.35303197 9.58174568,9.71907387 C9.58174568,11.3622933 10.5181114,12.7726571 11.878292,13.4906284 C9.54333747,14.3122381 7.86662026,16.5292172 7.86662026,19.1426681 C7.86662026,19.4346196 7.89443311,19.7190739 7.9350487,19.999559 L19.8045112,19.999559 C19.8446853,19.7190739 19.8729396,19.4346196 19.8729396,19.1426681 C19.8729396,16.5292172 18.1962224,14.3122382 15.8612679,13.4906284 Z" id="Shape" fill="url(#linearGradient-1)"></path>
                        </g>
                    </g>
                </g>
            </g>
        </g>
    </g>
</svg>