<?xml version="1.0" encoding="UTF-8"?>
<svg width="19px" height="15px" viewBox="0 0 19 15" version="1.1" xmlns="http://www.w3.org/2000/svg" xmlns:xlink="http://www.w3.org/1999/xlink">
    <!-- Generator: Sketch 50 (54983) - http://www.bohemiancoding.com/sketch -->
    <title>动态管理</title>
    <desc>Created with Sketch.</desc>
    <defs>
        <linearGradient x1="100%" y1="100%" x2="0%" y2="0%" id="linearGradient-1">
            <stop stop-color="#2CBFC7" offset="0%"></stop>
            <stop stop-color="#46EEAA" offset="100%"></stop>
        </linearGradient>
    </defs>
    <g id="Page-1" stroke="none" stroke-width="1" fill="none" fill-rule="evenodd">
        <g id="首页" transform="translate(-32.000000, -166.000000)" fill-rule="nonzero">
            <g id="母版">
                <g id="Group-19">
                    <g transform="translate(31.032292, 119.000000)">
                        <g id="动态管理" transform="translate(0.000000, 44.000000)">
                            <rect id="Rectangle-path" fill="#000000" opacity="0" x="0" y="0" width="20.0208333" height="20"></rect>
                            <path d="M16.7674479,15.6923077 L16.7674479,14.3757692 L16.7742049,14.3723077 L16.7674479,14.3561538 L16.7674479,8.95846154 L16.7674479,8.95038462 L16.7674479,8.65846154 L16.7674479,8.61807692 L16.7674479,7.50692308 L16.7674479,6.43846154 L16.7674479,6.43038462 L16.7674479,5.79 L16.7674479,5.30769231 L16.578251,5.30769231 L16.4791479,5.30769231 L15.9577303,5.30769231 L12.8877858,5.30769231 L11.6580061,5.30769231 L10.4282264,5.30769231 L9.19844674,5.30769231 L6.7377612,5.30769231 L5.50798151,5.30769231 L3.25338542,5.30769231 L3.25338542,11.2603846 L3.25338542,12.5203846 L3.25338542,13.7803846 L3.25338542,14.3930769 L3.25338542,15.6923077 L9.9608651,15.6923077 L16.7674479,15.6923077 Z M15.641276,11.7703846 L14.8101612,9.83192308 L15.641276,9.45807692 L15.641276,11.7703846 Z M13.9148546,6.46153846 L13.4688905,6.66230769 L13.3833014,6.46153846 L13.9148546,6.46153846 Z M9.6928362,6.46153846 L10.3752964,8.055 L8.31327565,8.98269231 L7.23327682,6.46153846 L9.6928362,6.46153846 Z M4.37955729,8.41384615 L5.22080768,10.3753846 L4.37955729,10.7526923 L4.37955729,8.41384615 Z M8.23556979,14.5384615 L7.15782331,12.0230769 L6.12624987,12.4880769 L7.0057901,14.5384615 L4.37955729,14.5384615 L4.37955729,14.5338462 L6.57897096,13.5438462 L6.12624987,12.4880769 L4.37955729,13.2738462 L4.37955729,12.0138462 L6.70397604,10.9673077 L4.77259128,6.46153846 L6.00237096,6.46153846 L7.73554948,10.5034615 L8.76712292,10.0396154 L11.8607171,8.64692308 L11.4068698,7.59 L10.9226159,6.46153846 L12.1523956,6.46153846 L12.8821549,8.18307692 L15.641276,6.93692308 L15.641276,8.19692308 L13.334876,9.23884615 L15.6153741,14.5384615 L14.3855944,14.5384615 L12.312312,9.70384615 L9.21984401,11.0953846 L8.18827057,11.5592308 L9.46534948,14.5384615 L8.23556979,14.5384615 Z M11.7345858,11.2234615 L13.1558147,14.5384615 L10.6951292,14.5384615 L9.6725651,12.1523077 L11.7345858,11.2234615 Z M1.00104167,3.9 L1.00104167,17.1 C1.00104167,17.5970563 1.40398539,18 1.90104167,18 L18.1197917,18 C18.6168479,18 19.0197917,17.5970563 19.0197917,17.1 L19.0197917,3.9 C19.0197917,3.40294373 18.6168479,3 18.1197917,3 L1.90104167,3 C1.40398539,3 1.00104167,3.40294373 1.00104167,3.9 Z M17.8936198,16.8461538 L2.12721354,16.8461538 L2.12721354,4.15384615 L17.8936198,4.15384615 L17.8936198,16.8461538 Z" id="Shape" fill="url(#linearGradient-1)"></path>
                        </g>
                    </g>
                </g>
            </g>
        </g>
    </g>
</svg>