<?xml version="1.0" standalone="no"?><!DOCTYPE svg PUBLIC "-//W3C//DTD SVG 1.1//EN" "http://www.w3.org/Graphics/SVG/1.1/DTD/svg11.dtd"><svg t="1553741248099" class="icon" style="" viewBox="0 0 1024 1024" version="1.1" xmlns="http://www.w3.org/2000/svg" p-id="1334" xmlns:xlink="http://www.w3.org/1999/xlink" width="200" height="200"><defs><style type="text/css"></style></defs><path d="M512 32C247.34375 32 32 247.34375 32 512s215.34375 480 480 480 480-215.34375 480-480S776.65625 32 512 32z m0 918.28125C270.3125 950.28125 73.71875 753.6875 73.71875 512S270.3125 73.71875 512 73.71875 950.28125 270.3125 950.28125 512 753.6875 950.28125 512 950.28125z" fill="#000000" p-id="1335"></path><path d="M831.78125 457.8125L546.96875 293.375c-19.59375-11.34375-43.03125-11.34375-62.625 0s-31.3125 31.59375-31.3125 54.1875v36.1875l-156.5625-90.375c-19.59375-11.34375-43.03125-11.34375-62.625 0s-31.3125 31.59375-31.3125 54.1875v328.78125c0 22.59375 11.71875 42.9375 31.3125 54.1875 9.84375 5.625 20.53125 8.53125 31.3125 8.53125s21.46875-2.8125 31.3125-8.53125l156.5625-90.375v36.1875c0 22.59375 11.71875 42.9375 31.3125 54.1875 9.84375 5.625 20.53125 8.53125 31.3125 8.53125s21.46875-2.8125 31.3125-8.53125L831.6875 566.09375c19.59375-11.34375 31.3125-31.59375 31.3125-54.1875s-11.625-42.84375-31.21875-54.09375zM275.75 694.4375c-9.46875 5.4375-17.71875 1.78125-20.90625 0-3.09375-1.78125-10.40625-7.21875-10.40625-18.09375V347.5625c0-10.875 7.3125-16.21875 10.40625-18.09375 3.1875-1.78125 11.4375-5.4375 20.90625 0L463.53125 437.9375l96.9375 55.96875c9.375 5.4375 10.40625 14.4375 10.40625 18.09375 0 3.65625-1.03125 12.65625-10.40625 18.09375L463.53125 586.0625 275.75 694.4375z m535.125-164.34375L526.15625 694.4375c-9.46875 5.4375-17.71875 1.78125-20.90625 0-3.09375-1.78125-10.40625-7.21875-10.40625-18.09375V616.0625l86.53125-49.96875c19.59375-11.34375 31.3125-31.59375 31.3125-54.1875s-11.71875-42.9375-31.3125-54.1875l-86.53125-49.96875v-60.28125c0-10.875 7.3125-16.21875 10.40625-18.09375 3.09375-1.78125 11.4375-5.4375 20.90625 0l284.71875 164.4375c9.375 5.4375 10.40625 14.4375 10.40625 18.09375 0.09375 3.75-0.9375 12.75-10.40625 18.1875z" fill="#000000" p-id="1336"></path></svg>