<?xml version="1.0" encoding="UTF-8"?>
<svg width="22px" height="27px" viewBox="0 0 22 27" version="1.1" xmlns="http://www.w3.org/2000/svg" xmlns:xlink="http://www.w3.org/1999/xlink">
    <!-- Generator: Sketch 50 (54983) - http://www.bohemiancoding.com/sketch -->
    <title>news</title>
    <desc>Created with Sketch.</desc>
    <defs></defs>
    <g id="Symbols" stroke="none" stroke-width="1" fill="none" fill-rule="evenodd">
        <g id="公告" transform="translate(-42.000000, -11.000000)" fill="#FFFFFF" fill-rule="nonzero">
            <g id="Group-5">
                <g transform="translate(17.100000, 0.000000)">
                    <g id="news" transform="translate(18.900000, 9.900000)">
                        <rect id="Rectangle-path" opacity="0" x="0" y="0" width="33.3" height="28.8"></rect>
                        <path d="M25.6856473,1.8 L7.61435266,1.8 C6.8884994,1.8 6.3,2.31287844 6.3,2.94546106 L6.3,21.2727234 L11.5573777,25.8545389 L12.8717304,27 L25.6856473,27 C26.4115006,27 27,26.487696 27,25.8545389 L27,2.94546106 C27,2.31287844 26.4115006,1.8 25.6856473,1.8 Z M12.8717633,24.6769117 L8.95516769,21.2727234 L12.8717633,21.2727234 L12.8717633,24.6769117 Z M25.0723992,25.2246847 L14.5192848,25.2246847 L14.5192848,20.7000216 C14.5192848,20.1966494 14.3596867,19.8807314 13.5289396,19.8807314 L8.30639473,19.8807314 L8.30639473,3.45615681 L25.0723992,3.45615681 L25.0723992,25.2246847 Z M25.6856473,1.8 L7.61435266,1.8 C6.8884994,1.8 6.3,2.31287844 6.3,2.94546106 L6.3,21.2727234 L11.5573777,25.8545389 L12.8717304,27 L25.6856473,27 C26.4115006,27 27,26.487696 27,25.8545389 L27,2.94546106 C27,2.31287844 26.4115006,1.8 25.6856473,1.8 Z M12.8717633,24.6769117 L8.95516769,21.2727234 L12.8717633,21.2727234 L12.8717633,24.6769117 Z M25.0723992,25.2246847 L14.5192848,25.2246847 L14.5192848,20.7000216 C14.5192848,20.1966494 14.3596867,19.8807314 13.5289396,19.8807314 L8.30639473,19.8807314 L8.30639473,3.45615681 L25.0723992,3.45615681 L25.0723992,25.2246847 Z M20.7885269,8.46724745 C20.7885269,8.73701266 20.5375793,8.95571405 20.2280388,8.95571405 L11.2160691,8.95571405 C10.9065286,8.95571405 10.655581,8.73701266 10.655581,8.46724745 L10.655581,7.97955627 C10.655581,7.70979106 10.9065286,7.49108966 11.2160691,7.49108966 L20.2280717,7.49108966 C20.5376122,7.49108966 20.7885599,7.70979106 20.7885599,7.97955627 L20.7885599,8.46724745 L20.7885269,8.46724745 Z M18.7124996,12.0857718 C18.7124996,12.355537 18.4615519,12.5742384 18.1520114,12.5742384 L11.2160691,12.5742383 C10.9065286,12.5742383 10.655581,12.3555369 10.655581,12.0857717 L10.655581,11.6124405 C10.655581,11.3426753 10.9065286,11.1239739 11.2160691,11.1239739 L18.1520443,11.1239739 C18.4615849,11.1239739 18.7125325,11.3426753 18.7125325,11.6124405 L18.7125325,12.0857718 L18.7124996,12.0857718 Z M22.8151227,15.6611876 C22.8151227,15.9309528 22.5641751,16.1496542 22.2546345,16.1496542 L11.2160691,16.1496542 C10.9065286,16.1496542 10.655581,15.9309528 10.655581,15.6611876 L10.655581,15.2618098 C10.655581,14.9920446 10.9065286,14.7733432 11.2160691,14.7733432 L22.2546345,14.7733432 C22.5641751,14.7733432 22.8151227,14.9920446 22.8151227,15.2618098 L22.8151227,15.6611876 Z" id="Shape" stroke="#FFFFFF" stroke-width="0.5"></path>
                    </g>
                </g>
            </g>
        </g>
    </g>
</svg>