<?xml version="1.0" encoding="UTF-8"?>
<svg width="186px" height="35px" viewBox="0 0 186 35" version="1.1" xmlns="http://www.w3.org/2000/svg" xmlns:xlink="http://www.w3.org/1999/xlink">
    <!-- Generator: Sketch 50 (54983) - http://www.bohemiancoding.com/sketch -->
    <title>概览</title>
    <desc>Created with Sketch.</desc>
    <defs></defs>
    <g id="Page-4" stroke="none" stroke-width="1" fill="none" fill-rule="evenodd">
        <g id="首页-站所" transform="translate(-259.000000, -103.000000)" fill="#FFFFFF">
            <g id="banner" transform="translate(206.000000, 95.000000)">
                <g id="概览" transform="translate(52.000000, 8.000000)">
                    <rect id="Rectangle-path" fill-rule="nonzero" opacity="0" x="0" y="0" width="29" height="29"></rect>
                    <path d="M19.03125,9.0625 L9.96875,9.0625 C9.4703125,9.0625 9.0625,9.4703125 9.0625,9.96875 C9.0625,10.4671875 9.4703125,10.875 9.96875,10.875 L19.03125,10.875 C19.5296875,10.875 19.9375,10.4671875 19.9375,9.96875 C19.9375,9.4703125 19.5296875,9.0625 19.03125,9.0625 Z M19.03125,14.5 L9.96875,14.5 C9.4703125,14.5 9.0625,14.9078125 9.0625,15.40625 C9.0625,15.9046875 9.4703125,16.3125 9.96875,16.3125 L19.03125,16.3125 C19.5296875,16.3125 19.9375,15.9046875 19.9375,15.40625 C19.9375,14.9078125 19.5296875,14.5 19.03125,14.5 Z" id="Shape" fill-rule="nonzero"></path>
                    <path d="M20.390625,0 L7.703125,0 C7.2046875,0 6.796875,0.4078125 6.796875,0.90625 L6.796875,1.8125 L4.53125,1.8125 C3.0359375,1.8125 1.8125,3.0359375 1.8125,4.53125 L1.8125,26.28125 C1.8125,27.7765625 3.0359375,29 4.53125,29 L24.46875,29 C25.9640625,29 27.1875,27.7765625 27.1875,26.28125 L27.1875,13.59375 C27.1875,13.0953125 26.7796875,12.6875 26.28125,12.6875 C25.7828125,12.6875 25.375,13.0953125 25.375,13.59375 L25.375,26.28125 C25.375,26.7796875 24.9671875,27.1875 24.46875,27.1875 L4.53125,27.1875 C4.0328125,27.1875 3.625,26.7796875 3.625,26.28125 L3.625,4.53125 C3.625,4.0328125 4.0328125,3.625 4.53125,3.625 L6.796875,3.625 L6.796875,4.53125 C6.796875,5.0296875 7.2046875,5.4375 7.703125,5.4375 L20.390625,5.4375 C20.8890625,5.4375 21.296875,5.0296875 21.296875,4.53125 L21.296875,3.625 L24.46875,3.625 C24.9671875,3.625 25.375,4.0328125 25.375,4.53125 L25.375,8.15625 C25.375,8.6546875 25.7828125,9.0625 26.28125,9.0625 C26.7796875,9.0625 27.1875,8.6546875 27.1875,8.15625 L27.1875,4.53125 C27.1875,3.0359375 25.9640625,1.8125 24.46875,1.8125 L21.296875,1.8125 L21.296875,0.90625 C21.296875,0.4078125 20.8890625,0 20.390625,0 Z M19.484375,3.625 L8.609375,3.625 L8.609375,1.8125 L19.484375,1.8125 L19.484375,3.625 Z" id="Shape" fill-rule="nonzero"></path>
                    <text id="德清-乾元站" font-family="PingFangSC-Semibold, PingFang SC" font-size="22" font-weight="500">
                        <tspan x="64.345" y="32">德清-乾元站</tspan>
                    </text>
                </g>
            </g>
        </g>
    </g>
</svg>