<?xml version="1.0" encoding="UTF-8"?>
<svg width="93px" height="28px" viewBox="0 0 93 28" version="1.1" xmlns="http://www.w3.org/2000/svg" xmlns:xlink="http://www.w3.org/1999/xlink">
    <!-- Generator: Sketch 50.2 (55047) - http://www.bohemiancoding.com/sketch -->
    <title>btn_logout</title>
    <desc>Created with Sketch.</desc>
    <defs></defs>
    <g id="首页" stroke="none" stroke-width="1" fill="none" fill-rule="evenodd">
        <g id="首页-站所" transform="translate(-1805.000000, -26.000000)">
            <g id="navi">
                <g id="Group" transform="translate(1210.000000, 0.000000)">
                    <g id="btn_logout" transform="translate(595.000000, 26.000000)">
                        <rect id="Rectangle-15" fill="#E8E8E8" x="0" y="0" width="93" height="28" rx="14"></rect>
                        <path d="M17.5,20.8999839 C14.3538289,20.9019489 11.658581,18.6488115 11.1027814,15.5521224 C10.5469818,12.4554333 12.2904474,9.40562721 15.2409278,8.31335362 C15.415903,8.24481433 15.6142501,8.2760881 15.7596472,8.39514109 C15.9050443,8.51419408 15.9748332,8.7024735 15.9421598,8.88753128 C15.9094865,9.07258905 15.7794425,9.22558645 15.6020676,9.28765156 C13.125636,10.206479 11.6630343,12.7672883 12.1297934,15.367114 C12.5965524,17.9669396 14.8586069,19.8590436 17.5,19.8590436 C20.1413931,19.8590436 22.4034476,17.9669396 22.8702066,15.367114 C23.3369657,12.7672883 21.874364,10.206479 19.3979324,9.28765156 C19.1341847,9.18433926 19.0017726,8.88882126 19.1002221,8.62322007 C19.1986716,8.35761888 19.4917072,8.21980013 19.7590722,8.31335362 C22.7095526,9.40562721 24.4530182,12.4554333 23.8972186,15.5521224 C23.341419,18.6488115 20.6461711,20.9019489 17.5,20.8999839 Z M17.5,13.3654132 C17.2130187,13.3654132 16.9803744,13.1327689 16.9803744,12.8457876 L16.9803744,7.51962557 C16.9803744,7.23264429 17.2130187,7 17.5,7 C17.7869813,7 18.0196256,7.23264429 18.0196256,7.51962557 L18.0196256,12.8457876 C18.0196256,13.1327689 17.7869813,13.3654132 17.5,13.3654132 Z M17.5,14.0708049 C17.2130187,14.0708049 16.9803744,14.3034492 16.9803744,14.5904305 C16.9803744,14.8774118 17.2130187,15.110056 17.5,15.110056 C17.7869813,15.110056 18.0196256,14.8774118 18.0196256,14.5904305 C18.0196256,14.3034492 17.7869813,14.0708049 17.5,14.0708049 Z" id="Shape" fill="#9B9B9B" fill-rule="nonzero"></path>
                        <text id="退出登录" font-family="PingFangSC-Regular, PingFang SC" font-size="12.8" font-weight="normal" fill="#9B9B9B">
                            <tspan x="31" y="18">退出登录</tspan>
                        </text>
                    </g>
                </g>
            </g>
        </g>
    </g>
</svg>