<?xml version="1.0" encoding="UTF-8"?>
<svg width="22px" height="22px" viewBox="0 0 22 22" version="1.1" xmlns="http://www.w3.org/2000/svg" xmlns:xlink="http://www.w3.org/1999/xlink">
    <!-- Generator: Sketch 50.2 (55047) - http://www.bohemiancoding.com/sketch -->
    <title>tab_ship</title>
    <desc>Created with Sketch.</desc>
    <defs></defs>
    <g id="巡航巡查" stroke="none" stroke-width="1" fill="none" fill-rule="evenodd">
        <g id="电子巡航-巡航问题登记" transform="translate(-479.000000, -440.000000)" fill="#1890FF" fill-rule="nonzero">
            <g id="Group-15" transform="translate(452.000000, 39.000000)">
                <g id="tab_ship" transform="translate(26.000000, 400.000000)">
                    <rect id="Rectangle-path" opacity="0" x="0" y="0" width="24" height="24"></rect>
                    <path d="M20.3953125,19.125 C20.015625,19.125 19.678125,19.153125 19.3757813,19.2 L22.4039063,13.396875 C22.5117188,13.190625 22.5304688,12.9492188 22.453125,12.7289063 C22.3757813,12.5085938 22.2117188,12.3304688 21.9984375,12.2367188 L17.3203125,10.1625 L17.3203125,5.390625 C17.3203125,5.109375 17.1820313,4.84921875 16.9476563,4.6921875 L12.4710938,1.66875 C12.1875,1.4765625 11.8148438,1.4765625 11.5289063,1.66640625 L7.00546875,4.68984375 C6.77109375,4.846875 6.63046875,5.109375 6.63046875,5.390625 L6.63046875,10.1882813 L2.0015625,12.2367188 C1.78828125,12.3304688 1.62421875,12.5085938 1.546875,12.7265625 C1.46953125,12.9445313 1.4859375,13.1859375 1.59140625,13.3945313 L5.23828125,20.49375 C4.81640625,20.6882813 4.33359375,20.8148438 3.60234375,20.8148438 C3.1359375,20.8148438 2.77734375,20.7609375 2.4890625,20.6835938 C2.11171875,20.5828125 1.71796875,20.7585938 1.54453125,21.1101563 C1.53984375,21.1171875 1.5375,21.1242188 1.5328125,21.1335938 C1.2984375,21.6117188 1.55859375,22.1859375 2.07421875,22.321875 C2.54296875,22.4460938 3.03984375,22.5046875 3.60234375,22.5046875 C5.2359375,22.5046875 6.08671875,21.9914063 6.83671875,21.5390625 C7.50703125,21.1359375 8.034375,20.8171875 9.19921875,20.8171875 C10.3640625,20.8171875 10.8914062,21.1359375 11.5617188,21.5390625 C12.3117188,21.9914063 13.1625,22.5046875 14.7960938,22.5046875 C16.4296875,22.5046875 17.2804688,21.9914063 18.0304688,21.5390625 C18.7007813,21.1359375 19.228125,20.8171875 20.3929688,20.8171875 C20.8523438,20.8171875 21.2085937,20.86875 21.4945312,20.94375 C21.88125,21.0445313 22.284375,20.8570313 22.4601563,20.4984375 C22.6945313,20.0203125 22.434375,19.4460938 21.91875,19.3101563 C21.4546875,19.1835938 20.9578125,19.125 20.3953125,19.125 Z M8.3203125,5.840625 L11.9976562,3.38203125 L15.6328125,5.83828125 L15.6328125,9.4125 L12.3539062,7.959375 C12.1359375,7.86328125 11.8875,7.86328125 11.6695312,7.959375 L8.3203125,9.440625 L8.3203125,5.840625 Z M12.8203125,20.315625 L12.8203125,12.65625 C12.8203125,12.1898437 12.4429687,11.8125 11.9765625,11.8125 C11.5101562,11.8125 11.1328125,12.1898437 11.1328125,12.65625 L11.1328125,19.4320312 C10.6265625,19.2515625 10.0101563,19.125 9.2015625,19.125 C8.07421875,19.125 7.31953125,19.36875 6.71484375,19.66875 L3.50390625,13.4179687 L12.0117188,9.65390625 L20.49375,13.4132812 L16.9382812,20.221875 C16.3640625,20.559375 15.8320312,20.8125 14.7984375,20.8125 C13.8632812,20.8125 13.3382813,20.60625 12.8203125,20.315625 Z" id="Shape"></path>
                </g>
            </g>
        </g>
    </g>
</svg>