<?xml version="1.0" encoding="UTF-8"?>
<svg width="19px" height="18px" viewBox="0 0 19 18" version="1.1" xmlns="http://www.w3.org/2000/svg" xmlns:xlink="http://www.w3.org/1999/xlink">
    <!-- Generator: Sketch 50 (54983) - http://www.bohemiancoding.com/sketch -->
    <title>基础引擎</title>
    <desc>Created with Sketch.</desc>
    <defs>
        <linearGradient x1="100%" y1="100%" x2="1.16743491e-14%" y2="-4.4408921e-14%" id="linearGradient-1">
            <stop stop-color="#EE4D5F" offset="0%"></stop>
            <stop stop-color="#F36C6C" offset="20%"></stop>
            <stop stop-color="#F8867A" offset="40%"></stop>
            <stop stop-color="#FB9F88" offset="60%"></stop>
            <stop stop-color="#FEB796" offset="80%"></stop>
            <stop stop-color="#FFCFA5" offset="100%"></stop>
        </linearGradient>
    </defs>
    <g id="Page-1" stroke="none" stroke-width="1" fill="none" fill-rule="evenodd">
        <g id="首页" transform="translate(-32.000000, -474.000000)" fill-rule="nonzero">
            <g id="母版">
                <g id="Group-19">
                    <g transform="translate(31.032292, 119.000000)">
                        <g id="基础引擎" transform="translate(0.000000, 354.000000)">
                            <rect id="Rectangle-path" fill="#000000" opacity="0" x="0" y="0" width="20.0208333" height="20"></rect>
                            <path d="M10.0104167,19 C5.03483917,19 1.00104167,14.9716 1.00104167,10 C1.00104167,5.0284 5.03483917,1 10.0104167,1 C14.9859942,1 19.0197917,5.0284 19.0197917,10 C19.0197917,14.9716 14.9859942,19 10.0104167,19 Z M10.0104167,2.12440001 C5.65708667,2.12440001 2.12781416,5.64999999 2.12781416,10 C2.12781416,14.35 5.65708667,17.8756 10.0104167,17.8756 C14.3649479,17.8756 17.8942204,14.35 17.8942204,10 C17.8942204,5.64999999 14.3649479,2.12440001 10.0104167,2.12440001 Z M14.5151042,10 C14.5151042,7.51479999 12.4982054,5.5 10.0104167,5.5 C7.52262791,5.5 5.50572917,7.51479999 5.50572917,10 L4.38015791,10 C4.38015791,6.8932 6.90038042,4.37559999 10.0104167,4.37559999 C13.1204529,4.37559999 15.6418767,6.8932 15.6418767,10 L14.5151042,10 Z M9.44703041,12.25 C9.45303667,12.25 9.45664042,12.2524 9.46144541,12.2524 L11.0218692,8.57920001 C11.1419942,8.29599999 11.5035704,8.13280001 11.8303104,8.21560001 C12.1570504,8.29840001 12.3240242,8.59360001 12.2038992,8.87800001 L10.5786079,12.7024 C10.9173604,13.0108 11.1371892,13.444 11.1371892,13.9372 C11.1371892,14.8696 10.3804017,15.6244 9.44703041,15.6244 C8.51486042,15.6244 7.75807292,14.8696 7.75807292,13.9372 C7.75807292,13.006 8.51486042,12.25 9.44703041,12.25 Z M9.44703041,14.5012 C9.75815417,14.5012 10.0104167,14.2492 10.0104167,13.9384 C10.0104167,13.6276 9.75815417,13.3768 9.44703041,13.3768 C9.13590667,13.3768 8.88484541,13.6276 8.88484541,13.9384 C8.88484541,14.2492 9.13590667,14.5012 9.44703041,14.5012 Z" id="Shape" fill="url(#linearGradient-1)"></path>
                        </g>
                    </g>
                </g>
            </g>
        </g>
    </g>
</svg>