<?xml version="1.0" encoding="UTF-8"?>
<svg width="15px" height="15px" viewBox="0 0 15 15" version="1.1" xmlns="http://www.w3.org/2000/svg" xmlns:xlink="http://www.w3.org/1999/xlink">
    <!-- Generator: Sketch 50 (54983) - http://www.bohemiancoding.com/sketch -->
    <title>map</title>
    <desc>Created with Sketch.</desc>
    <defs></defs>
    <g id="Symbols" stroke="none" stroke-width="1" fill="none" fill-rule="evenodd">
        <g id="母版" transform="translate(-1513.000000, -29.000000)" fill="#FFFFFF" fill-rule="nonzero">
            <g id="Group" transform="translate(1407.000000, 0.000000)">
                <g id="Group-9" transform="translate(106.000000, 25.000000)">
                    <g id="map" transform="translate(0.000000, 4.000000)">
                        <path d="M7.0150074,5.99500717 C7.0209426,5.98996514 7.0267754,5.9875702 7.0327106,5.98517522 C7.0150074,5.94614163 6.9974065,5.91693995 6.9915737,5.89500717 C7.0033417,5.92677189 7.0090722,5.96076346 7.0150074,5.99500717 Z M9.69331567,8.87314783 C9.69331567,8.87314783 9.68144527,8.87314783 9.68144527,8.86670103 C9.68144537,8.87314783 9.68738057,8.87314783 9.69331567,8.87314783 Z M9.78153828,8.89864329 C9.75782297,8.88918848 9.70514502,8.90478624 9.68535957,8.86771484 C9.67216166,8.9728396 9.69056146,9.01327631 9.78153828,8.89864329 Z M7.13341013,0.121359711 C3.26763497,0.121359711 0.133474502,3.25460293 0.133474502,7.12142408 C0.133474502,10.9882291 3.26763497,14.1214724 7.13341013,14.1214724 C11.0002313,14.1214724 14.1334745,10.9882291 14.1334745,7.12142408 C14.1334745,3.25458685 11.0002313,0.121359711 7.13341013,0.121359711 Z M11.6040741,2.856048 C11.3633191,2.86351477 11.1953489,2.86351477 11.0011485,2.99696718 C10.9236808,3.05114954 10.8695467,3.1230011 10.7715615,3.15006814 C10.6819924,3.17435124 10.586775,3.152836 10.4980588,3.1836686 C10.1798361,3.29098732 10.2311862,3.97323122 9.81211375,3.86868034 C9.6151616,3.82112796 9.47699417,3.58777532 9.37717441,3.43658932 C9.28942377,3.30215528 9.13070664,3.1920687 9.23902308,3.02493537 C9.18953963,3.03803439 9.1382056,3.02308477 9.08968768,3.03240214 C9.15592307,2.88494952 9.38179285,2.89711522 9.41920716,2.82241532 C9.51341075,2.63392766 9.16340594,2.61334578 9.06357007,2.58722817 C9.18300621,2.45939193 9.24274036,2.63107935 9.36129142,2.6021778 C9.4742424,2.57419351 9.30157336,2.42579146 9.23340691,2.40805787 C9.20912381,2.40152446 8.80973209,2.51814445 9.04023642,2.31094159 C8.75551754,2.1299368 8.47091133,1.94698485 8.18529129,1.76498234 C8.1367251,1.96748628 8.56419767,2.08228787 8.7041835,2.15413944 C8.68274872,2.23815669 8.5530136,2.35949169 8.45316165,2.32404063 C8.35892587,2.29042407 8.39714478,2.13547252 8.2562095,2.14950489 C8.15535983,2.38470813 8.46997798,2.31655778 8.49889561,2.46032527 C8.53157882,2.62459421 8.3794273,2.55452886 8.32152765,2.55267826 C8.30755963,2.55174491 8.19834204,2.43881002 8.19277414,2.52377671 C8.18529129,2.62552754 8.36732597,2.58537756 8.37944339,2.68899509 C8.1675577,2.69737912 8.0601907,2.62176198 7.88943663,2.50790983 C7.6887672,2.3744735 7.58608302,2.38657482 7.34062905,2.38657482 C7.41433121,2.35673992 7.51608204,2.33430742 7.5776668,2.28580562 C7.6122006,2.25867421 7.74657028,2.12802184 7.75498648,2.09910418 C7.79330195,1.97313463 7.75313589,1.9824681 7.63271814,1.90030144 C7.52539942,1.82659928 7.39568039,1.69501355 7.26594526,1.66887986 C6.79558705,1.57552915 7.12029498,2.09356848 6.76391765,2.16448669 C6.76946946,2.16542004 6.77695232,2.16542004 6.78163514,2.16542004 L6.76200268,2.16542004 C6.76291992,2.16542004 6.76291992,2.16448669 6.76391764,2.16448669 C6.68178317,2.16355334 6.5268477,2.14297146 6.47364697,2.18592147 C6.43541195,2.21583682 6.43256364,2.3399397 6.39061134,2.38472422 C6.31591147,2.46405865 6.20482717,2.47992552 6.11525813,2.53782518 C6.02752359,2.59286042 5.83618761,2.73748081 5.78577083,2.83554653 C5.59729927,3.19486872 6.2095261,3.30687027 6.4419454,3.41138895 C6.54649627,3.45990686 6.85345453,3.52433993 6.91124154,3.60459161 C6.98779203,3.71097698 6.84413716,3.8108933 7.00459225,3.88551272 C7.05592629,3.90977973 7.16139442,3.91449473 7.20524559,3.86592854 C7.2761799,3.78475961 7.17632795,3.76794329 7.15862656,3.67365923 C7.12594334,3.49442458 7.18007742,3.56542326 7.2706281,3.49912349 C7.45541455,3.36282275 7.41339789,3.35535598 7.34721076,3.13790242 C7.31636206,3.03805047 7.20067541,2.75712935 7.3033274,2.68244557 C7.43583037,2.58539365 7.71863427,2.7356463 7.82128627,2.74781199 C7.93895226,2.76269725 8.00700608,2.92696619 8.07145524,2.99419929 C8.11437308,3.03806657 8.19087527,3.13233452 8.26555906,3.12300107 C8.38505956,3.10620084 8.33465886,3.00259941 8.40374257,2.95403323 C8.58943018,2.82621307 8.63704693,2.99979938 8.71076519,3.1743512 C8.78076616,3.33862014 8.84706593,3.39828992 8.96931819,3.50475576 C9.02721784,3.55415874 9.2782236,3.72777724 9.25493823,3.83607757 C9.23905525,3.90792913 8.95158462,4.01809617 8.87505023,4.04229881 C8.59412912,4.13194832 8.06768968,3.89674507 8.01078774,4.34193512 C8.12089041,4.30178514 8.43077743,4.04884831 8.52321089,4.16833273 C8.56514711,4.22336797 8.48961044,4.3027024 8.50637848,4.35590313 C8.56051256,4.51832145 8.68558096,4.46135517 8.81621725,4.43621918 C8.80783322,4.44177098 8.79849976,4.44646989 8.78823296,4.45110443 C8.96746761,4.35873534 8.94881679,4.37831952 9.03093516,4.22808296 C9.05798611,4.17858343 9.09723493,4.06094962 9.13545384,4.02649627 C9.26612231,3.90699577 9.2856904,3.98909805 9.36595817,4.08246486 C9.38654007,4.1058146 9.58627615,4.39328523 9.51534184,4.37925286 C9.28385588,4.33168439 9.06077006,4.33816953 8.86940189,4.46512071 C8.75843024,4.53788953 8.65386329,4.63780585 8.52127985,4.68629157 C8.48959435,4.69754 8.25439111,4.72082538 8.28147424,4.68073976 C8.32252538,4.62192286 8.46252731,4.58267404 8.5166453,4.52015593 C8.36447769,4.45763782 8.23667363,4.59577307 8.11717313,4.6769581 C7.98928861,4.73670835 7.96037096,4.84964324 7.85213499,4.9476285 C7.8054194,4.99054634 7.71583425,4.99804528 7.66921522,5.05407825 C7.62340079,5.10911349 7.61878233,5.19406409 7.57586451,5.24724874 C7.54593305,5.28364924 7.46844923,5.26213399 7.437681,5.31631635 C7.39662986,5.38816791 7.47499875,5.45538493 7.45818243,5.50673507 C7.42651302,5.60002141 7.24819562,5.67933974 7.18007744,5.74655676 C7.18939481,5.73722329 7.19879264,5.72880709 7.20712839,5.71950581 C7.13812514,5.79227463 7.05132394,5.84547536 6.99712549,5.92949262 C7.02232585,6.04711033 7.09980967,6.32803144 7.07745764,6.39241624 C7.00645896,6.60526745 6.86842027,6.27763075 6.81147007,6.19174681 C6.61743061,5.89962555 6.23005975,6.09469489 5.96687221,6.11987916 C5.62898479,6.15072786 5.29766297,6.5893523 5.50579919,6.94590664 C5.6057155,7.11666072 5.77461899,7.18296049 5.96778947,7.14379212 C6.13954127,7.10731116 6.1908914,6.86750555 6.35232811,6.86279054 C6.65004946,6.85533986 6.35979488,7.15497619 6.33366119,7.26512713 C6.31031145,7.36589633 6.37097894,7.37521371 6.47551372,7.4013474 C6.55296537,7.41999824 6.66314849,7.36773084 6.72941607,7.41251538 C6.77133619,7.43964678 6.76948558,7.5926512 6.82828639,7.54416547 C6.71354918,7.63930241 6.74060013,7.86425495 6.85717185,7.94548824 C6.98780814,8.03600673 7.1409091,7.9529711 7.27619602,7.98650719 C7.53476511,8.0518897 7.41156341,7.96692301 7.63651593,7.83063837 C7.78955253,7.73918654 7.81383562,7.84842022 7.91925547,7.84842022 C7.98928862,7.84842022 8.03505476,7.74666939 8.15355755,7.77558703 C8.24967612,7.80078739 8.28799159,7.87548726 8.40279316,7.89230359 C8.45036163,7.89877264 8.49984508,7.8735723 8.54371234,7.87920456 C8.75748081,7.9025543 8.91983477,8.03877457 9.08880262,8.162974 C9.22688957,8.2637432 9.3183736,8.24322568 9.48082411,8.2898608 C9.59931081,8.32347736 9.81676438,8.49524524 9.80651366,8.6454818 C9.80466307,8.67161549 9.70106163,8.80698288 9.68332805,8.86766648 C9.71316295,8.88816791 9.92414746,8.84153279 9.98473451,8.83776722 C9.96515033,8.86019971 9.82146329,8.96188617 9.82146329,8.90776818 C9.82146329,8.93483522 9.9222164,8.99180153 9.94743284,9.00860176 C10.0221327,8.76593176 10.1453344,8.92180056 10.2927709,8.98246807 C10.4187727,9.03380212 10.5737242,9.03658606 10.7071606,9.06835201 C10.8200955,9.09541905 11.0711656,9.17288679 11.1551989,9.26523978 C11.2560164,9.37724132 11.1859833,9.55832659 11.1113316,9.67126148 C11.0133464,9.81687958 10.8649443,9.87284817 10.8042768,10.0446 C10.7557106,10.1808202 10.7911617,10.317121 10.7641269,10.4682909 C10.7268091,10.6727259 10.6968776,10.6018077 10.565308,10.7249933 C10.4542398,10.829528 10.5634735,10.8117945 10.4122875,10.8790115 C10.2619544,10.9452308 10.1285181,10.9265799 10.0230661,11.0926995 C10.0277006,11.0815315 10.0314662,11.072198 10.034234,11.0609335 C9.99036675,11.1225987 9.96801472,11.2495016 9.94648339,11.290585 C9.8942321,11.3960531 9.82144718,11.4641874 9.73746212,11.5519219 C9.70564789,11.5855385 9.41080703,11.9877946 9.39399072,11.9560286 C9.37249158,11.914012 9.1410539,11.9980292 9.12983766,11.9373617 C9.13912285,11.9877946 9.12703762,11.9709783 9.18493726,11.9989626 C9.13173653,12.3293671 8.99266795,12.3788506 8.66781518,12.3825679 C8.69488222,12.541285 8.55024574,12.5095351 8.48207929,12.595403 C8.44286266,12.6458359 8.42329456,12.7858217 8.39621143,12.849257 C8.37944339,12.8903565 8.25344164,13.0527104 8.25344164,13.0844603 C8.25254048,13.1142952 8.29539394,13.1572291 8.33556002,13.1992458 C8.1068902,13.2449636 7.8744709,13.2767135 7.6365159,13.2962977 C7.68130043,13.2394119 7.69250058,13.1917629 7.55064805,13.1842962 C7.58796581,13.0826097 7.67753485,13.0228594 7.71490088,12.9238765 C7.73265056,12.8772414 7.71770092,12.8585744 7.73356781,12.8119393 C7.78490185,12.6513555 7.76248544,12.7129563 7.73356781,12.5879201 C7.66544963,12.2957506 7.7578509,12.2154828 7.83716923,11.9476124 C7.91927151,11.6723236 7.91087139,11.3157692 7.96407213,11.0199146 C7.98835523,10.8779977 8.02943856,10.5831246 7.98088846,10.4496239 C7.92491987,10.2984379 7.68131651,10.1798708 7.57023222,10.0791338 C7.41157945,9.93535018 7.32753002,9.77948136 7.20997667,9.60032716 C7.15115977,9.5097443 7.08209216,9.42200976 7.03544093,9.32310724 C6.93647405,9.1121871 7.03544093,9.2372233 7.0531745,9.11310435 C7.06905748,8.99270269 7.03822488,8.88630121 7.08585771,8.76026729 C7.13907455,8.62118262 7.26974301,8.53439751 7.31266085,8.39346224 C7.35181311,8.26750877 7.32294376,8.11070662 7.19410979,8.0696072 C7.12225822,8.04625746 7.04385714,8.0994421 6.97192511,8.08827412 C6.87212143,8.07239115 6.7592509,7.99682229 6.67994866,7.93708813 C6.56978163,7.85398813 6.52876266,7.71870121 6.41206221,7.63836906 C6.31501029,7.573067 6.24500933,7.61223537 6.14047455,7.58054988 C6.03030752,7.54878393 5.96317095,7.41351309 5.8744387,7.37242977 C5.74285297,7.30899441 5.66915081,7.3994968 5.52823162,7.38082988 C5.40966447,7.36588026 5.22857921,7.23427843 5.11849264,7.18386165 C4.89260677,7.08402578 4.75540487,6.97200815 4.66482202,6.74337051 C4.58741865,6.54733562 4.47541711,6.45589987 4.34281758,6.29159876 C4.20844791,6.12641258 4.16643124,5.9854773 3.96022609,5.94061232 C3.93502574,5.93600995 4.00964516,6.11516415 4.01804528,6.13011379 C4.09182791,6.26639842 4.20281565,6.39145073 4.29156399,6.51933525 C4.42408306,6.70690565 4.36803401,6.74235672 4.23366433,6.56135191 C4.08054729,6.35321571 3.90325977,6.14599676 3.77072461,5.92574315 C3.72032392,5.8435765 3.72964128,5.78944241 3.64755509,5.71104134 C3.5681402,5.63357361 3.46268817,5.59625585 3.38243648,5.52438819 C3.09309917,5.26398459 3.03993061,4.91586255 3.07353107,4.54435857 C3.08378179,4.42300747 3.12764906,4.32688891 3.10806488,4.21025282 C3.09309915,4.11310435 3.03523169,4.03378601 2.96429737,3.96285171 C2.94192924,3.92646731 2.88312844,3.83596491 2.88028012,3.83128209 C2.81499416,3.72211277 2.76362793,3.61472967 2.65910926,3.52516062 C2.60027627,3.47287714 2.44442354,3.35247548 2.29793646,3.25172237 C2.95406276,2.43317775 3.81174354,1.78632055 4.79650426,1.38314717 C4.80390666,1.43263061 4.82540581,1.48113242 4.85717175,1.52874917 C4.93835679,1.64908646 5.01489117,1.63976908 5.17354394,1.67245229 C5.1567598,1.8563215 4.94205798,1.85722266 4.79743761,1.83765457 C4.62475246,1.81337147 4.4418166,1.75648564 4.29156396,1.90765553 C4.3745835,1.95807231 4.60231997,2.15217615 4.57248507,1.94965611 C4.7386046,1.94032264 4.89910797,1.93562373 5.05967569,1.95527228 C5.12497775,1.96462184 5.34338075,2.03739066 5.40218156,2.00379019 C5.42739801,1.98982217 5.4535317,1.86756992 5.48059874,1.82925445 C5.43396362,1.82925445 5.38446408,1.80688632 5.3387623,1.81060361 C5.44606493,1.67338563 5.55246639,1.78076871 5.69060164,1.84328682 C5.53849839,1.93563982 5.62808352,2.1559578 5.77555223,1.97672315 C5.89688724,1.83110504 5.74571733,1.72378632 5.59261637,1.63976908 C5.74756792,1.44564916 5.84276924,1.42791559 5.98740572,1.64723585 C6.01260608,1.51194893 6.12092251,1.56513357 6.23477465,1.57631764 L6.23477465,1.54085048 C6.18435787,1.54271718 6.13117323,1.51379953 6.08167369,1.5194157 C6.19739253,1.33456488 6.12369036,1.29261256 6.28889264,1.23094735 C6.42047837,1.18429613 6.79746977,1.22908065 6.84323592,1.1049778 C6.58006447,1.15537849 6.2618256,1.16751199 6.02477175,1.28791365 C5.92302093,1.3392477 5.80075257,1.50259937 5.6980684,1.39616573 C5.59353363,1.28791365 5.77276828,1.113394 5.86512129,1.06019327 L5.84275316,1.06019327 C6.25904166,0.970624226 6.69019933,0.922975287 7.13342614,0.922975287 C7.41997951,0.922975287 7.70088453,0.94449052 7.97623777,0.981808275 C7.88103646,1.03314232 7.95195467,1.06767613 7.88195371,1.11802855 C7.74946682,1.21516092 7.51333023,1.29726319 7.3556269,1.35886406 C7.55626416,1.35793071 8.04248924,1.54649883 8.13582387,1.26551335 C8.07145516,1.25524655 8.007006,1.24591308 7.94170394,1.23474512 C8.06303895,1.15449343 8.19742471,1.09006036 8.34025887,1.0424758 C9.61986043,1.29541263 10.7575934,1.94497332 11.6237547,2.85500195 C11.6171892,2.856048 11.6106236,2.856048 11.6040741,2.856048 Z M12.738138,5.31350029 C12.7493221,5.28929765 12.776373,5.28089755 12.7875571,5.26031565 C12.8109068,5.21831507 12.8062884,5.18939744 12.8342405,5.15301302 C12.8650248,5.11283085 12.9070415,5.10351348 12.9406259,5.07274525 C12.9556077,5.05964622 12.9630744,5.04846216 12.9686423,5.03636084 C13.0722438,5.32474872 13.1544104,5.62340342 13.2150618,5.92859154 C13.2131629,5.93137549 13.2112962,5.93423988 13.2094135,5.9360905 C13.1944799,5.94819181 13.0964947,5.96222419 13.0759932,5.96314145 C13.0050106,5.9659254 12.9517938,5.91835693 12.9004598,5.87448965 C12.8481924,5.82877178 12.7875249,5.76900544 12.7502232,5.71020462 C12.7110549,5.64861986 12.7352575,5.58323735 12.7381058,5.51230304 C12.7418392,5.45258498 12.7129377,5.36769875 12.738138,5.31350029 Z M12.8174885,8.52326181 C12.6970708,8.41872704 12.5561677,8.27780786 12.4702677,8.14337382 C12.3787515,7.99967069 12.4357338,7.85128473 12.4422995,7.68514911 C12.4478352,7.54699777 12.3807147,7.34914448 12.4385339,7.22409217 C12.4655848,7.16619252 12.5281834,7.14754169 12.5533837,7.10090657 C12.608419,7.0019236 12.5962372,6.93477094 12.6625531,6.84890309 C12.7334552,6.75740298 12.8305071,6.73503485 12.9089243,6.66405227 C12.9929737,6.5884995 12.9901737,6.52874925 13.0442917,6.43263069 C13.0825428,6.36262973 13.1740429,6.24499593 13.2589613,6.18247782 C13.3065458,6.48859928 13.3317784,6.80220361 13.3317784,7.1214241 C13.3317784,7.67298343 13.2579958,8.207823 13.1217594,8.71646449 C13.0060084,8.68754684 12.9098254,8.60352958 12.8174885,8.52326181 Z" id="Shape"></path>
                    </g>
                </g>
            </g>
        </g>
    </g>
</svg>