<?xml version="1.0" encoding="UTF-8"?>
<svg width="29px" height="28px" viewBox="0 0 29 28" version="1.1" xmlns="http://www.w3.org/2000/svg" xmlns:xlink="http://www.w3.org/1999/xlink">
    <!-- Generator: Sketch 50.2 (55047) - http://www.bohemiancoding.com/sketch -->
    <title>常用功能</title>
    <desc>Created with Sketch.</desc>
    <defs></defs>
    <g id="Symbols" stroke="none" stroke-width="1" fill="none" fill-rule="evenodd">
        <g id="常用" transform="translate(-39.000000, -8.000000)" fill="#FFFFFF" fill-rule="nonzero">
            <g id="Group-5">
                <g transform="translate(17.100000, 0.000000)">
                    <g id="Group-18" transform="translate(14.400000, 8.000000)">
                        <g id="常用功能" transform="translate(8.000000, 0.000000)">
                            <rect id="Rectangle-path" opacity="0" x="0" y="0" width="28" height="28"></rect>
                            <path d="M11.1176471,11.1415294 C11.1176471,12.3411244 10.1451832,13.3135882 8.94558823,13.3135882 L2.17205882,13.3135882 C0.972463858,13.3135882 1.46908013e-16,12.3411244 0,11.1415294 L0,4.368 C-1.46908013e-16,3.16840504 0.972463858,2.19594118 2.17205882,2.19594118 L8.94558823,2.19594118 C10.1451832,2.19594118 11.1176471,3.16840504 11.1176471,4.368 L11.1176471,11.1415294 Z M11.1176471,25.5532941 C11.1176471,26.7528891 10.1451832,27.7253529 8.94558823,27.7253529 L2.17205882,27.7253529 C0.972463858,27.7253529 1.46908013e-16,26.7528891 0,25.5532941 L0,18.7797647 C-7.25201369e-09,18.2036989 0.228841244,17.6512272 0.63618129,17.2438872 C1.04352134,16.8365471 1.595993,16.6077059 2.17205882,16.6077059 L8.94558823,16.6077059 C9.52165405,16.6077059 10.0741257,16.8365471 10.4814658,17.2438872 C10.8888058,17.6512272 11.1176471,18.2036989 11.1176471,18.7797647 L11.1176471,25.5532941 Z M20.5894706,14.574 C20.0133579,14.5762808 19.4602871,14.3479352 19.0535882,13.9398824 L14.091,8.97647059 C13.6829471,8.56977175 13.4546016,8.01670096 13.4568824,7.44058823 C13.4568824,6.85876469 13.6821176,6.31358823 14.091,5.90470587 L19.054,0.941705871 C19.4628824,0.532823512 20.0080588,0.30758823 20.5898824,0.30758823 C21.1717059,0.30758823 21.7168824,0.532823512 22.1257647,0.941705871 L27.0887647,5.90470587 C27.9356037,6.7533712 27.9356037,8.12739349 27.0887647,8.97605882 L22.1253529,13.9398824 C21.7186541,14.3479352 21.1655833,14.5762808 20.5894706,14.574 Z M20.5894706,1.17641177 C20.2398824,1.17641177 19.9129412,1.31147059 19.6679412,1.55605882 L14.7053529,6.51905882 C14.4607647,6.76364705 14.3257059,7.091 14.3257059,7.44058823 C14.3257058,7.79017646 14.4607647,8.11711764 14.7053529,8.36211764 L19.6683529,13.3255294 C20.1579412,13.8151176 21.0218235,13.8151176 21.5114118,13.3255294 L26.4748235,8.36211764 C26.9828647,7.85279629 26.9828647,7.02838017 26.4748235,6.51905882 L21.511,1.55605882 C21.2669543,1.31136538 20.9350571,1.17463204 20.5894706,1.17641177 Z M25.5294118,25.5532941 C25.5294118,26.7528891 24.5569479,27.7253529 23.3573529,27.7253529 L16.5838235,27.7253529 C16.0077577,27.7253529 15.4552861,27.4965117 15.047946,27.0891716 C14.640606,26.6818316 14.4117647,26.1293599 14.4117647,25.5532941 L14.4117647,18.7797647 C14.4117647,18.2036989 14.640606,17.6512272 15.047946,17.2438872 C15.4552861,16.8365471 16.0077577,16.6077059 16.5838235,16.6077059 L23.3573529,16.6077059 C23.9334188,16.6077059 24.4858904,16.8365471 24.8932305,17.2438872 C25.3005705,17.6512272 25.5294118,18.2036989 25.5294118,18.7797647 L25.5294118,25.5532941 Z" id="Shape"></path>
                        </g>
                    </g>
                </g>
            </g>
        </g>
    </g>
</svg>