<?xml version="1.0" encoding="UTF-8"?>
<svg width="16px" height="17px" viewBox="0 0 16 17" version="1.1" xmlns="http://www.w3.org/2000/svg" xmlns:xlink="http://www.w3.org/1999/xlink">
    <!-- Generator: Sketch 51.3 (57544) - http://www.bohemiancoding.com/sketch -->
    <title>icon-public</title>
    <desc>Created with Sketch.</desc>
    <defs>
        <linearGradient x1="100%" y1="100%" x2="0%" y2="0%" id="linearGradient-1">
            <stop stop-color="#5DC06A" offset="0%"></stop>
            <stop stop-color="#41C4C2" offset="100%"></stop>
        </linearGradient>
    </defs>
    <g id="Page-3" stroke="none" stroke-width="1" fill="none" fill-rule="evenodd">
        <g id="Artboard" transform="translate(-274.000000, -86.000000)" fill-rule="nonzero">
            <g id="icon-public" transform="translate(272.000000, 84.000000)">
                <rect id="Rectangle-path" fill="#000000" opacity="0" x="0" y="0" width="20" height="20"></rect>
                <path d="M8.14843579,9.15090263 C6.95416912,8.47838934 6.21311945,7.20376816 6.21188365,5.81999181 C6.21405758,4.8046649 6.61444518,3.8317979 7.32496523,3.11541169 C8.03548529,2.39902547 8.99793533,1.99780304 10.0005861,2.00000924 C12.0880421,1.99541454 13.7841153,3.70495936 13.7892886,5.81880474 C13.7892902,7.15543692 13.0981157,8.39447166 11.9676167,9.08442687 L14.5067038,13.1430099 L16.9449777,13.1430099 C17.5276504,13.1430099 18,13.6213313 18,14.2113705 L18,17.9316394 C18,18.5216787 17.5276504,19 16.9449777,19 L3.05502235,19 C2.47234959,19 2,18.5216787 2,17.9316394 L2,14.2113705 C2,13.6213313 2.47234959,13.1430099 3.05502235,13.1430099 L5.50267419,13.1430099 L8.14960803,9.15208971 L8.14843579,9.15090263 Z M9.65828998,7.82969673 C9.91123604,7.77152702 10.1731522,7.7654716 10.4284563,7.81189072 C11.3596528,7.61369551 12.0274895,6.78355825 12.030918,5.81999181 C12.030918,4.69583909 11.1224266,3.78179726 10.0005861,3.78179726 C8.87757345,3.78179726 7.97025423,4.69583907 7.97025423,5.81999181 C7.97025423,6.82899902 8.6993919,7.66706852 9.65828998,7.8308838 L9.65828998,7.82969673 Z M3.75719832,17.2193991 L16.2416294,17.2193991 L16.2416294,14.9224238 L3.75837058,14.9224238 L3.75837058,17.218212 L3.75719832,17.2193991 Z M10.2350355,9.64472264 C10.2033468,9.59393505 10.1485045,9.56275273 10.0891862,9.56179546 C10.029868,9.5608382 9.97407226,9.59023507 9.94080153,9.63997436 L7.75807752,12.9340861 L12.2946736,12.9340861 L10.2362078,9.64472264 L10.2350355,9.64472264 Z" id="Shape" fill="url(#linearGradient-1)"></path>
            </g>
        </g>
    </g>
</svg>