<?xml version="1.0" encoding="UTF-8"?>
<svg width="34px" height="32px" viewBox="0 0 34 32" version="1.1" xmlns="http://www.w3.org/2000/svg" xmlns:xlink="http://www.w3.org/1999/xlink">
    <!-- Generator: Sketch 50 (54983) - http://www.bohemiancoding.com/sketch -->
    <title>Shape</title>
    <desc>Created with Sketch.</desc>
    <defs></defs>
    <g id="Page-4" stroke="none" stroke-width="1" fill="none" fill-rule="evenodd">
        <g id="首页-站所" transform="translate(-371.000000, -175.000000)" fill="#333333" fill-rule="nonzero">
            <g id="banner" transform="translate(206.000000, 95.000000)">
                <g id="间距-&lt;v15&gt;" transform="translate(165.000000, 80.000000)">
                    <g id="Group-26">
                        <g id="间距-&lt;h8-&gt;">
                            <g id="天气">
                                <path d="M17.2115571,5.88120226 C17.830518,5.88120226 18.3323216,5.41426437 18.3323216,4.83830942 L18.3323216,1.50122617 C18.3323216,0.925271224 17.830518,0.458333333 17.2115571,0.458333333 C16.5925962,0.458333333 16.0907926,0.925271224 16.0907926,1.50122617 L16.0907926,4.83830945 C16.0907926,5.41429915 16.5925589,5.88120226 17.2115571,5.88120226 Z M8.1753186,8.75315533 C8.39416656,8.9568323 8.68097017,9.05861866 8.96781117,9.05861866 C9.25461482,9.05861866 9.54149316,8.95676279 9.76030374,8.75315533 C10.1979996,8.34587093 10.1979996,7.68554592 9.76030374,7.27829627 L7.22446197,4.91861219 C6.78680344,4.51132779 6.07713534,4.51132779 5.63947681,4.91861219 C5.20178092,5.32589659 5.20178092,5.9862216 5.63947681,6.39347125 L8.1753186,8.75315533 Z M1.96691835,16.7295126 L5.55317799,16.7295126 C6.17213886,16.7295126 6.67394249,16.2626095 6.67394249,15.6866198 C6.67394249,15.1106301 6.17213886,14.6437269 5.55317799,14.6437269 L1.96691835,14.6437269 C1.34795748,14.6437269 0.846153846,15.1106648 0.846153846,15.6866198 C0.846153846,16.2625747 1.34795748,16.7295126 1.96691835,16.7295126 Z M27.7491344,15.6866545 C27.7491344,16.2626095 28.2509381,16.7295474 28.8698989,16.7295474 L32.4561586,16.7295474 C33.0751194,16.7295474 33.5769231,16.2626442 33.5769231,15.6866545 C33.5769231,15.1106648 33.0751194,14.6437617 32.4561586,14.6437617 L28.8698989,14.6437617 C28.250938,14.6437617 27.7491344,15.1106648 27.7491344,15.6866545 Z M25.4552657,9.05861862 C25.7421067,9.05861862 26.0289104,8.95679751 26.2477583,8.7531553 L28.7836374,6.39347121 C29.2213333,5.98618681 29.2213333,5.3258618 28.7836374,4.9185774 C28.3459789,4.511293 27.6363108,4.511293 27.1986522,4.9185774 L24.6627731,7.27826148 C24.2250772,7.68554589 24.2250772,8.34587089 24.6627731,8.7531553 C24.8815837,8.95679751 25.1684247,9.05861862 25.4552657,9.05861862 Z M28.6316617,19.9267439 C28.4627999,18.2021816 27.7341535,16.5720358 26.5323951,15.2404007 C26.4156488,13.0807434 25.4533231,11.0660483 23.7950773,9.53049286 C22.0341321,7.89989513 19.6960679,7.00186011 17.2116318,7.00186011 C14.7185659,7.00186011 12.3747485,7.90524864 10.6119354,9.54558001 C8.84912224,11.1859462 7.87827867,13.3669132 7.87827867,15.686724 C7.87827867,15.9238083 7.88926216,16.1608926 7.90988423,16.396934 C7.28408669,16.6169497 6.71668097,16.9711508 6.25387995,17.4388187 C5.53890692,18.1613001 5.1348713,19.093403 5.1097662,20.0731313 C4.08688179,20.3851648 3.1633345,20.9487441 2.44171157,21.7126631 C1.46873854,22.7426241 0.932901056,24.0656727 0.932901056,25.4381196 C0.932901056,28.5509114 3.65676974,31.0833333 7.00482953,31.0833333 L27.4419703,31.0833333 C29.0386861,31.0833333 30.5500744,30.49907 31.6977372,29.4382394 C32.853507,28.3699 33.4900265,26.953721 33.4900265,25.4506691 C33.4900265,23.9700046 32.8760717,22.5714506 31.7613219,21.5126015 C30.9006868,20.6951126 29.8149275,20.1492625 28.6316617,19.9267439 Z M17.2116692,9.08768057 C19.0994476,9.08768057 20.8759714,9.77001059 22.2139774,11.009002 C22.8921894,11.6370321 23.4173423,12.3706377 23.7714291,13.1700151 C23.6032024,13.0880437 23.4318001,13.0106958 23.2572971,12.9380409 C22.0801955,12.4480899 20.8248272,12.1996728 19.5260105,12.1996728 C16.146009,12.1996728 13.0879657,13.9284415 11.5044001,16.6202869 C11.0811248,16.4073282 10.6207147,16.2610103 10.1400935,16.1888074 C10.1265696,16.0219793 10.1198077,15.8544212 10.1198077,15.6867935 C10.119845,12.0480014 13.3012098,9.08768057 17.2116692,9.08768057 Z M30.1179823,27.9585136 C29.3931465,28.6285375 28.4427382,28.9975825 27.4419702,28.9975825 L7.0048295,28.9975825 C4.89274879,28.9975825 3.17442999,27.4008092 3.17442999,25.4381545 C3.17442999,23.6680177 4.59249597,22.1523468 6.47291465,21.9125857 C6.78713964,21.8725038 7.0684142,21.7104383 7.24698932,21.4665404 C7.42556448,21.2226078 7.48474084,20.9197517 7.40979903,20.6329562 C7.37012397,20.4810762 7.34998757,20.3254766 7.34998757,20.1705027 C7.34998757,19.6802388 7.54630815,19.2119452 7.90274864,18.85173 C8.25735851,18.493392 8.73805441,18.2727854 9.25633328,18.2305483 C9.25715519,18.2304787 9.25797705,18.2303397 9.25883634,18.2302702 C9.25943409,18.2302354 9.25999445,18.2302006 9.26059219,18.2301659 C9.31894665,18.2251948 9.38040192,18.2226918 9.44323945,18.2226918 C10.0756869,18.2226918 10.6677494,18.4846665 11.0676008,18.9414883 C11.2825635,19.1870201 11.60299,19.3257596 11.9364548,19.3257596 C12.0017954,19.3257596 12.067659,19.3204408 12.1333358,19.3095252 C12.5340464,19.2430234 12.8644852,18.9796234 12.9966233,18.621355 C13.9531585,16.027889 16.5771297,14.2854237 19.5259732,14.2854237 C20.5072772,14.2854237 21.4547342,14.4726925 22.3420061,14.8419808 C23.200026,15.1991021 23.9597923,15.7075819 24.6001598,16.3533411 C24.6002719,16.3534802 24.6004213,16.3535845 24.6005334,16.3536887 C25.7789799,17.5420999 26.4280146,19.0872152 26.4280146,20.7044291 C26.4280146,20.7362721 26.4287991,20.7673503 26.4296584,20.7982547 C26.430032,20.8112908 26.430667,20.8242227 26.4304429,20.8373979 C26.4180397,21.410537 26.9050493,21.88554 27.520872,21.9009748 C28.5217895,21.9260042 29.4590848,22.3064515 30.1600483,22.9722343 C30.861871,23.6388514 31.2484227,24.5190182 31.2484227,25.4506344 C31.2484974,26.3940005 30.8470022,27.284631 30.1179823,27.9585136 Z" id="Shape"></path>
                            </g>
                        </g>
                    </g>
                </g>
            </g>
        </g>
    </g>
</svg>