<?xml version="1.0" encoding="UTF-8"?>
<svg width="58px" height="57px" viewBox="0 0 58 57" version="1.1" xmlns="http://www.w3.org/2000/svg" xmlns:xlink="http://www.w3.org/1999/xlink">
    <!-- Generator: Sketch 50.2 (55047) - http://www.bohemiancoding.com/sketch -->
    <title>任务</title>
    <desc>Created with Sketch.</desc>
    <defs></defs>
    <g id="Symbols" stroke="none" stroke-width="1" fill="none" fill-rule="evenodd">
        <g id="常用" transform="translate(-35.000000, -100.000000)">
            <g id="间距-&lt;h40-&gt;">
                <g transform="translate(32.000000, 100.000000)">
                    <g id="Group-6">
                        <g id="任务" transform="translate(3.000000, 0.000000)">
                            <circle id="Oval" fill="#1890FF" cx="28.92" cy="28.5" r="28.5"></circle>
                            <g id="task_fill" transform="translate(10.680000, 11.400000)" fill="#FFFFFF" fill-rule="nonzero">
                                <rect id="Rectangle-path" opacity="0" x="0" y="0" width="36.48" height="36.48"></rect>
                                <path d="M23.73708,16.86972 L17.48076,23.70972 C17.26416,23.9457 16.95864,24.08022 16.6383,24.08022 L16.6326,24.08022 C16.3102728,24.0780107 16.0038823,23.9397209 15.789,23.69946 L12.73494,20.27946 C12.4636897,19.9756271 12.375137,19.5501635 12.5026388,19.1633373 C12.6301407,18.7765112 12.9543266,18.4870905 13.3530789,18.4040973 C13.7518311,18.3211041 14.1645697,18.457147 14.43582,18.76098 L16.64856,21.24048 L22.0533,15.33072 C22.4831732,14.8891723 23.1859601,14.8686838 23.6408265,15.2844384 C24.0956929,15.7001931 24.1383036,16.4019862 23.73708,16.86972 M28.49544,5.74332 L26.22,5.74332 C26.21772,5.74332 26.22,6.4752 26.22,6.89472 L26.22,9.15192 C26.22442,10.4125079 25.2074168,11.4386918 23.94684,11.4456 L12.53544,11.4456 C11.2744178,11.4399452 10.2562137,10.4140892 10.26,9.15306 L10.26,6.89586 C10.26,6.47406 10.25544,6.13092 10.25544,5.74446 L7.97088,5.74446 C6.71767299,5.74571556 5.70188484,6.76099378 5.7,8.0142 L5.7,28.55244 C5.7,29.8053 6.71802,30.82332 7.97088,30.82332 L28.5114,30.82332 C29.7637166,30.8208092 30.7781184,29.8058977 30.78,28.55358 L30.78,8.0142 C30.78,6.76248 29.754,5.74332 28.49544,5.74332 M23.81916,5.3238 C23.5501374,4.85313064 23.0502846,4.56191205 22.50816,4.56 L14.1018,4.56 C13.53978,4.56 13.053,4.8678 12.78852,5.32266 C12.6497225,5.55711802 12.5757561,5.82426289 12.5742,6.09672 L12.5742,7.61064 C12.5742,8.45994 13.2582,9.14964 14.1018,9.14964 L22.50816,9.14964 C23.34948,9.14964 24.03348,8.45994 24.03348,7.61064 L24.03348,6.09672 C24.03348,5.81172 23.95254,5.55294 23.81916,5.3238" id="Shape"></path>
                            </g>
                        </g>
                    </g>
                </g>
            </g>
        </g>
    </g>
</svg>