<?xml version="1.0" standalone="no"?><!DOCTYPE svg PUBLIC "-//W3C//DTD SVG 1.1//EN" "http://www.w3.org/Graphics/SVG/1.1/DTD/svg11.dtd"><svg t="1564971310520" class="icon" viewBox="0 0 1024 1024" version="1.1" xmlns="http://www.w3.org/2000/svg" p-id="2490" width="32" height="32" xmlns:xlink="http://www.w3.org/1999/xlink"><defs><style type="text/css"></style></defs><path d="M111.8 161.8c0-27.5 22.7-49.8 49.8-49.8H443c27.5 0 49.8 22.7 49.8 49.8v281.3c0 27.5-22.7 49.8-49.8 49.8H161.6c-27.5 0-49.8-22.7-49.8-49.8V161.8z m419.1 419.1c0-27.5 22.7-49.8 49.8-49.8H862c27.5 0 49.8 22.7 49.8 49.8v281.3c0 27.5-22.7 49.8-49.8 49.8H580.7c-27.5 0-49.8-22.7-49.8-49.8V580.9z m-419.1 0c0-27.5 22.7-49.8 49.8-49.8H443c27.5 0 49.8 22.7 49.8 49.8v281.3c0 27.5-22.7 49.8-49.8 49.8H161.6c-27.5 0-49.8-22.7-49.8-49.8V580.9z m419.1-419c0-27.6 22.7-49.9 49.8-49.9H862c27.5 0 49.8 22.7 49.8 49.8v281.3c0 27.5-22.7 49.8-49.8 49.8H580.7c-27.5 0-49.8-22.7-49.8-49.8V161.9z m50 281.2c0-0.2 281.1-0.2 281.1-0.2-0.2 0-0.2-281.1-0.2-281.1 0 0.2-281.2 0.2-281.2 0.2 0.3 0 0.3 281.1 0.3 281.1z m0 0" p-id="2491"></path></svg>