<?xml version="1.0" standalone="no"?><!DOCTYPE svg PUBLIC "-//W3C//DTD SVG 1.1//EN" "http://www.w3.org/Graphics/SVG/1.1/DTD/svg11.dtd"><svg t="1553763298289" class="icon" style="" viewBox="0 0 1024 1024" version="1.1" xmlns="http://www.w3.org/2000/svg" p-id="1190" xmlns:xlink="http://www.w3.org/1999/xlink" width="200" height="200"><defs><style type="text/css"></style></defs><path d="M116.4921875 512C116.4921875 730.07003022 293.92996978 907.5078125 512 907.5078125s395.5078125-177.43778229 395.5078125-395.5078125-177.43778229-395.5078125-395.5078125-395.5078125S116.4921875 293.92996978 116.4921875 512z m756.64043426 0C873.13262176 711.14436341 711.14436341 873.13262176 512 873.13262176S150.86737824 711.14436341 150.86737824 512 312.85563659 150.86737824 512 150.86737824 873.13262176 312.85563659 873.13262176 512z" fill="" p-id="1191"></path><path d="M340.0467987 391.64820862L340.0467987 632.35179138c0 28.42712403 23.17428589 51.60140992 51.60140992 51.60140992l240.78083039 0c28.42712403 0 51.60140992-23.17428589 51.6014099-51.60140992l0-240.78083039c0-28.42712403-23.17428589-51.60140992-51.60140991-51.6014099L391.64820862 339.96955108c-28.42712403 0.07724763-51.60140992 23.17428589-51.60140992 51.67865754z m292.30499268-17.22621918c9.50145722 0 17.22621918 7.72476196 17.22621918 17.22621918L649.57801056 632.35179138c0 9.50145722-7.72476196 17.22621918-17.22621918 17.22621918L391.64820862 649.57801056c-9.50145722 0-17.22621918-7.72476196-17.22621918-17.22621918l1e-8-240.78083039c0-9.50145722 7.72476196-17.22621918 17.22621917-17.22621917l240.70358276 0z" fill="" p-id="1192"></path></svg>