<?xml version="1.0" encoding="UTF-8"?>
<svg width="34px" height="25px" viewBox="0 0 34 25" version="1.1" xmlns="http://www.w3.org/2000/svg" xmlns:xlink="http://www.w3.org/1999/xlink">
    <!-- Generator: Sketch 50 (54983) - http://www.bohemiancoding.com/sketch -->
    <title>Shape</title>
    <desc>Created with Sketch.</desc>
    <defs></defs>
    <g id="Page-4" stroke="none" stroke-width="1" fill="none" fill-rule="evenodd">
        <g id="首页-站所" transform="translate(-270.000000, -182.000000)" fill="#333333" fill-rule="nonzero">
            <g id="banner" transform="translate(206.000000, 95.000000)">
                <g id="间距-&lt;v15&gt;" transform="translate(64.000000, 87.000000)">
                    <g id="间距-&lt;h8-&gt;">
                        <path d="M14.0430499,2.87592518 C14.0430499,1.56153543 15.1690846,0.496031746 16.5580885,0.496031746 C17.9471484,0.496031746 19.0731831,1.56153543 19.0731831,2.87592518 L19.0731831,14.3807574 C19.9982646,15.0368647 20.5424334,16.0671692 20.5416659,17.1611157 C20.5416659,19.0794358 18.8995506,20.6349206 16.8734835,20.6349206 C14.8474164,20.6349206 13.2053571,19.0794358 13.2053571,17.1610627 C13.2053571,16.3416891 13.5071976,15.5659872 14.0430499,14.951245 L14.0430499,2.87592518 Z M15.3247807,15.915179 C14.9063634,16.2751197 14.6714209,16.7661346 14.6726236,17.2781455 C14.6726236,18.337805 15.6581729,19.1964286 16.8734832,19.1964286 C18.0887935,19.1964286 19.0744048,18.337805 19.0744048,17.2781455 C19.0744048,16.569746 18.6306876,15.9301744 17.9307437,15.5951505 L17.4494044,15.364717 L17.4494044,2.73942273 C17.4494044,2.29489974 17.0353139,1.93452381 16.524472,1.93452381 C16.013754,1.93452381 15.5996015,2.2948458 15.5996015,2.73942273 L15.5996015,15.677949 L15.3247807,15.915179 Z M16.8732673,4.81150794 L18.3410184,4.81150794 C18.7461178,4.81150794 19.0744048,4.48955057 19.0744048,4.0922619 C19.0744048,3.69497324 18.7461178,3.37301587 18.3410184,3.37301587 L16.8732673,3.37301587 C16.468168,3.37301587 16.139881,3.69497324 16.139881,4.0922619 C16.139881,4.48955057 16.468168,4.81150794 16.8732673,4.81150794 Z M16.8732673,7.68849206 L18.3410184,7.68849206 C18.7461178,7.68849206 19.0744048,7.3665347 19.0744048,6.96924603 C19.0744048,6.57195736 18.7461178,6.25 18.3410184,6.25 L16.8732673,6.25 C16.468168,6.25 16.139881,6.57195736 16.139881,6.96924603 C16.139881,7.3665347 16.468168,7.68849206 16.8732673,7.68849206 Z M16.8732673,10.5654762 L18.3410184,10.5654762 C18.7461178,10.5654762 19.0744048,10.2435188 19.0744048,9.84623016 C19.0744048,9.44894149 18.7461178,9.12698413 18.3410184,9.12698413 L16.8732673,9.12698413 C16.468168,9.12698413 16.139881,9.44894149 16.139881,9.84623016 C16.139881,10.2435188 16.468168,10.5654762 16.8732673,10.5654762 Z M0.260600029,14.8181262 C2.27693476,16.8168231 4.4760413,16.8168231 6.61432297,14.8364275 C8.19141096,13.3758346 9.36580657,13.3758346 10.4487667,14.7454965 C10.7262431,15.0963289 11.1959518,15.1194645 11.4979463,14.79712 C11.7998913,14.4747755 11.819803,13.9289596 11.5423762,13.5781272 C9.8950028,11.4946573 7.84008291,11.4946573 5.68872488,13.4871963 C4.09856054,14.9598173 2.69166333,14.9598173 1.22443656,13.50544 C0.912486178,13.1962172 0.443817632,13.2393807 0.177634502,13.6018383 C-0.0884990952,13.9643536 -0.0513503518,14.5088458 0.260600029,14.8181262 Z M6.13972908,19.1850103 C8.28743575,21.1152909 10.6366796,21.1152909 12.9144512,19.2025494 C13.2529682,18.9182854 13.3033789,18.4054697 13.0270438,18.0572395 C12.750656,17.7089549 12.2521444,17.6570977 11.9136273,17.9413618 C10.2253706,19.3591526 8.7388094,19.3591526 7.18098702,17.9589552 C6.85191868,17.6631794 6.35198185,17.6978233 6.06445615,18.036388 C5.77693045,18.3749527 5.81060796,18.8891802 6.13972908,19.184956 L6.13972908,19.1850103 Z M33.4863741,13.5052865 C31.470088,11.5065896 29.2709805,11.5065896 27.1326979,13.4869852 C25.5556092,14.9475781 24.3812131,14.9475781 23.2982524,13.5779162 C23.0208255,13.2270838 22.551067,13.2039482 22.2491219,13.5262927 C21.9471273,13.8486372 21.9272155,14.3943956 22.2046425,14.7452855 C23.8520661,16.8287554 25.9069374,16.8287554 28.0582964,14.8362164 C29.6484615,13.3635378 31.0553593,13.3635378 32.5225867,14.8179727 C32.8345868,15.1271955 33.303206,15.084032 33.5693892,14.7215744 C33.8355229,14.3590591 33.7983742,13.8145668 33.4864237,13.5052865 L33.4863741,13.5052865 Z M26.4765291,17.9403828 C24.6491822,19.3477778 23.2950952,19.3477778 22.0394893,18.027259 C21.7219191,17.6931656 21.1785532,17.6662883 20.8259586,17.9670972 C20.4732493,18.2679062 20.4448744,18.7826479 20.7624445,19.1166327 C22.6731965,21.1262973 25.064259,21.1262973 27.5607961,19.203509 C27.9289826,18.9198581 27.984758,18.407234 27.6853593,18.0584259 C27.3859606,17.7096178 26.8447156,17.6567862 26.4765291,17.9403828 Z M19.1402195,22.255859 C17.3128727,23.663254 15.9587857,23.663254 14.7031798,22.3427352 C14.3856096,22.0086418 13.8422436,21.9817644 13.489649,22.2825734 C13.1369398,22.5833824 13.1085649,23.0981241 13.426135,23.4321089 C15.336887,25.4417735 17.7279495,25.4417735 20.2244866,23.5189852 C20.5926731,23.2353343 20.6484485,22.7227102 20.3490498,22.3739021 C20.049651,22.025094 19.508406,21.9722624 19.1402195,22.255859 Z" id="Shape"></path>
                    </g>
                </g>
            </g>
        </g>
    </g>
</svg>