<?xml version="1.0" standalone="no"?><!DOCTYPE svg PUBLIC "-//W3C//DTD SVG 1.1//EN" "http://www.w3.org/Graphics/SVG/1.1/DTD/svg11.dtd"><svg class="icon" width="200px" height="200.00px" viewBox="0 0 1024 1024" version="1.1" xmlns="http://www.w3.org/2000/svg"><path fill="#cdcdcd" d="M902.749091 843.636364c-17.687273 0-33.373091 1.303273-47.476364 3.490909l140.986182-270.103273a39.098182 39.098182 0 0 0-18.897454-53.992727L759.621818 426.449455V204.381091a38.958545 38.958545 0 0 0-17.314909-32.535273L533.876364 31.185455a39.377455 39.377455 0 0 0-43.845819-0.139637L279.505455 171.752727a39.284364 39.284364 0 0 0-17.454546 32.581818v223.325091l-215.412364 95.371637a39.237818 39.237818 0 0 0-19.083636 53.899636l169.704727 330.426182c-19.642182 9.029818-42.077091 14.894545-76.148363 14.894545-21.690182 0-38.4-2.466909-51.805091-6.050909a37.934545 37.934545 0 0 0-43.938909 19.828364c-0.232727 0.325818-0.325818 0.651636-0.558546 1.117091a39.284364 39.284364 0 0 0 25.181091 55.296c21.829818 5.771636 44.962909 8.517818 71.121455 8.517818 76.055273 0 115.665455-23.924364 150.574545-44.962909 31.185455-18.757818 55.714909-33.605818 109.940364-33.605818s78.754909 14.848 109.986909 33.605818c34.909091 21.038545 74.472727 44.962909 150.528 44.962909s115.618909-23.924364 150.528-44.962909c31.185455-18.757818 55.761455-33.605818 109.986909-33.605818 21.410909 0 37.981091 2.420364 51.293091 5.911272a39.284364 39.284364 0 0 0 19.735273-76.055272 266.472727 266.472727 0 0 0-70.935273-8.610909zM340.712727 225.326545l171.194182-114.455272 169.192727 114.315636v166.353455l-152.669091-67.630546a39.470545 39.470545 0 0 0-31.790545 0L340.712727 392.890182v-167.563637z m209.454546 673.745455v-356.538182a39.237818 39.237818 0 1 0-78.522182 0v315.392c-23.552-8.378182-52.270545-14.289455-89.879273-14.289454-52.503273 0-87.598545 11.357091-115.758545 25.320727l-149.457455-290.955636 396.008727-175.197091 394.798546 175.010909-165.515636 316.881454c-26.717091 15.685818-51.479273 27.461818-99.607273 27.461818-43.52 0-67.956364-9.588364-92.066909-23.086545z" /></svg>