<?xml version="1.0" standalone="no"?><!DOCTYPE svg PUBLIC "-//W3C//DTD SVG 1.1//EN" "http://www.w3.org/Graphics/SVG/1.1/DTD/svg11.dtd"><svg class="icon" width="200px" height="163.71px" viewBox="0 0 1251 1024" version="1.1" xmlns="http://www.w3.org/2000/svg"><path fill="#cdcdcd" d="M1220.266667 953.230222c-21.617778-163.726222-114.915556-302.648889-242.232889-370.744889 55.808-44.202667 90.055111-110.648889 90.055111-182.044444 0-112.412444-83.911111-210.204444-199.452445-232.391111a39.765333 39.765333 0 1 0-15.075555 78.108444c78.165333 15.075556 134.883556 79.985778 134.883555 154.282667 0 64.967111-43.975111 123.904-109.568 147.057778A39.822222 39.822222 0 0 0 871.196444 625.777778c126.691556 31.630222 227.896889 146.602667 261.973334 292.807111H112.64c17.237333-158.549333 135.793778-292.522667 294.513778-326.428445a39.822222 39.822222 0 0 0 31.516444-38.798222 39.822222 39.822222 0 0 0-26.055111-38.001778 212.309333 212.309333 0 0 1-138.638222-198.257777 212.024889 212.024889 0 0 1 211.797333-211.797334 212.024889 212.024889 0 0 1 211.797334 211.797334c0 87.552-55.125333 166.855111-137.272889 197.745777a39.879111 39.879111 0 0 0-8.419556 3.982223l-0.341333 0.170666a43.178667 43.178667 0 0 0-1.877334 1.251556l-0.341333 0.284444a40.391111 40.391111 0 0 0-12.231111 14.449778 39.708444 39.708444 0 0 0-3.470222 25.031111v0.284445a37.546667 37.546667 0 0 0 0.284444 1.365333l0.170667 0.625778a43.235556 43.235556 0 0 0 0.284444 1.137778l0.227556 0.796444a37.944889 37.944889 0 0 0 0.341333 1.024l0.284445 0.853333 0.113777 0.398223 0.284445 0.682666a38.001778 38.001778 0 0 0 3.584 7.111111l0.227555 0.341334a40.391111 40.391111 0 0 0 0.910223 1.251555c0 0.113778 0.113778 0.170667 0.170666 0.284445a40.96 40.96 0 0 0 0.967111 1.251555l0.227556 0.341334 0.967111 1.137777 0.398222 0.398223a39.253333 39.253333 0 0 0 0.853334 0.910222l0.568889 0.625778 0.682666 0.682666 0.910222 0.796445 0.455112 0.455111a38.855111 38.855111 0 0 0 1.194666 0.967111l0.227556 0.170667c3.413333 2.730667 7.281778 4.892444 11.548444 6.371555h0.056889a39.822222 39.822222 0 0 0 3.527111 1.137778h0.341334l0.967111 0.284444a375.466667 375.466667 0 0 1 279.267555 253.496889 39.822222 39.822222 0 0 0 75.889778-24.007111 455.395556 455.395556 0 0 0-249.912889-278.641778 291.953778 291.953778 0 0 0 107.52-225.450666A291.726222 291.726222 0 0 0 485.831111 25.770667a291.726222 291.726222 0 0 0-291.441778 291.384889c0 88.860444 41.187556 171.463111 108.088889 225.848888-161.564444 71.566222-271.530667 233.984-271.530666 415.459556a39.822222 39.822222 0 0 0 39.822222 39.822222h1081.059555c5.12 0 10.012444-1.024 14.563556-2.787555a39.537778 39.537778 0 0 0 19.683555 2.389333 39.822222 39.822222 0 0 0 34.247112-44.657778z" /></svg>