<?xml version="1.0" standalone="no"?><!DOCTYPE svg PUBLIC "-//W3C//DTD SVG 1.1//EN" "http://www.w3.org/Graphics/SVG/1.1/DTD/svg11.dtd"><svg class="icon" width="200px" height="200.00px" viewBox="0 0 1024 1024" version="1.1" xmlns="http://www.w3.org/2000/svg"><path fill="#cdcdcd" d="M501.666909 432.081455l0.744727-0.41891a29.184 29.184 0 0 1-1.861818-4.18909c0.372364 1.489455 0.791273 3.072 1.117091 4.654545z m186.507636 202.565818c-0.093091-0.093091-0.465455-0.093091-0.512-0.186182 0.093091 0.093091 0.372364 0.093091 0.465455 0.186182z m4.375273 1.210182c-1.163636-0.465455-3.723636 0.325818-4.794182-1.396364-0.605091 4.980364 0.325818 6.842182 4.794182 1.396364zM510.464 25.413818C241.570909 25.413818 23.691636 243.665455 23.691636 512.837818c0 269.218909 217.925818 487.470545 486.772364 487.470546 268.8 0 486.725818-218.251636 486.725818-487.470546 0-269.172364-217.925818-487.424-486.725818-487.424z m310.923636 190.370909c-16.756364 0.558545-28.485818 0.558545-41.937454 9.914182-5.445818 3.723636-9.122909 8.704-16.011637 10.658909-6.190545 1.722182-12.846545 0.186182-18.990545 2.327273-22.109091 7.447273-18.618182 54.923636-47.755636 47.755636-13.684364-3.351273-23.319273-19.549091-30.208-30.161454-6.050909-9.309091-17.128727-16.989091-9.634909-28.625455-3.444364 0.884364-7.074909-0.139636-10.426182 0.465455 4.654545-10.24 20.340364-9.309091 22.946909-14.568728 6.516364-13.172364-17.873455-14.522182-24.762182-16.337454 8.331636-8.843636 12.567273 2.978909 20.712727 0.930909 7.912727-1.908364-4.189091-12.334545-8.843636-13.498182-1.722182-0.418909-29.463273 7.68-13.405091-6.702545l-59.485091-37.981091c-3.351273 14.103273 26.391273 22.109091 36.072727 27.042909-1.489455 5.818182-10.519273 14.289455-17.454545 11.822545-6.516364-2.327273-3.863273-13.172364-13.684364-12.101818-7.028364 16.384 14.848 11.636364 16.849455 21.643637 2.327273 11.403636-8.238545 6.562909-12.334546 6.376727-0.930909-0.046545-8.517818-7.912727-8.936727-1.954909-0.465455 7.074909 12.101818 4.282182 12.986182 11.450182-14.661818 0.558545-22.155636-4.701091-34.117818-12.660364-13.917091-9.262545-21.038545-8.424727-38.167273-8.424727 5.12-2.094545 12.194909-3.677091 16.523636-7.028364 2.420364-1.861818 11.776-10.984727 12.381091-13.032727 2.653091-8.750545-0.139636-8.052364-8.517818-13.824-7.447273-5.12-16.477091-14.242909-25.506909-16.058182-32.721455-6.516364-10.100364 29.556364-34.909091 34.536727l1.210182 0.046546h-1.396364 0.139637c-5.725091-0.232727-16.477091-1.629091-20.200728 1.396363-2.606545 2.141091-2.792727 10.705455-5.725091 13.824-5.213091 5.585455-12.939636 6.656-19.176727 10.658909-6.050909 3.909818-19.409455 13.963636-22.946909 20.712728-13.079273 25.088 29.509818 32.861091 45.707636 40.215272 7.261091 3.258182 28.625455 7.819636 32.581819 13.358546 5.352727 7.447273-4.561455 14.429091 6.516363 19.595636 3.584 1.675636 10.938182 2.001455 13.963637-1.396363 4.980364-5.632-2.001455-6.888727-3.211637-13.405091-2.327273-12.474182 1.489455-7.493818 7.773091-12.148364 12.8-9.448727 9.914182-10.007273 5.306182-25.088-2.141091-6.981818-10.193455-26.530909-3.118545-31.744 9.262545-6.749091 28.951273 3.677091 36.026181 4.514909 8.238545 1.024 12.939636 12.474182 17.454546 17.128727 2.978909 3.118545 8.285091 9.728 13.498182 8.983273 8.285091-1.117091 4.840727-8.378182 9.634909-11.682909 12.846545-8.983273 16.290909 3.165091 21.410909 15.36 4.794182 11.403636 9.355636 15.639273 17.966545 22.946909 4.002909 3.397818 21.457455 15.546182 19.828364 23.04-1.117091 5.073455-21.085091 12.706909-26.437818 14.429091-19.549091 6.190545-56.133818-10.146909-60.090182 20.852364 7.586909-2.792727 29.137455-20.48 35.607273-12.101819 2.932364 3.816727-2.327273 9.309091-1.117091 13.079273 3.723636 11.310545 12.381091 7.354182 21.504 5.538909a15.732364 15.732364 0 0 1-1.954909 1.024c12.474182-6.423273 11.170909-5.073455 16.896-15.453091 1.861818-3.397818 4.654545-11.636364 7.261091-14.056727 9.076364-8.378182 10.472727-2.606545 16.058181 3.816727 1.489455 1.722182 15.36 21.690182 10.426182 20.712728-16.151273-3.258182-31.650909-2.792727-45.009454 6.050909-7.726545 5.073455-14.987636 11.962182-24.203637 15.36-2.187636 0.791273-18.525091 2.327273-16.616727-0.465455 2.792727-4.049455 12.567273-6.749091 16.337455-11.170909-10.612364-4.328727-19.456 5.306182-27.787637 10.984727-8.843636 4.189091-10.891636 11.962182-18.432 18.850909-3.258182 2.978909-9.495273 3.490909-12.753454 7.447273-3.118545 3.770182-3.490909 9.774545-6.516364 13.405091-2.048 2.513455-7.400727 0.977455-9.541818 4.794182-2.839273 5.026909 2.56 9.634909 1.396363 13.218909-2.187636 6.516364-14.615273 12.101818-19.362909 16.756364 0.651636-0.558545 1.256727-1.210182 1.861819-1.861819-4.747636 5.026909-10.798545 8.750545-14.522182 14.568728 1.675636 8.192 7.121455 27.787636 5.585454 32.302545-4.980364 14.801455-14.615273-8.098909-18.525091-13.963636-13.498182-20.340364-40.401455-6.749091-58.786909-5.073455-23.505455 2.141091-46.545455 32.721455-32.023272 57.530182 6.981818 11.869091 18.664727 16.477091 32.116363 13.730909 11.962182-2.466909 15.546182-19.223273 26.810182-19.549091 20.666182-0.465455 0.465455 20.340364-1.396364 27.973818-1.629091 7.121455 2.606545 7.773091 9.914182 9.541819 5.352727 1.256727 13.032727-2.327273 17.687273 0.744727 2.932364 1.954909 2.792727 12.567273 6.795636 9.216-7.912727 6.609455-6.050909 22.295273 2.094546 27.927273 9.029818 6.283636 19.688727 0.465455 29.137454 2.885818 17.873455 4.561455 9.309091-1.396364 25.041455-10.845091 10.612364-6.423273 12.334545 1.210182 19.549091 1.210182 4.980364 0 8.098909-7.074909 16.337454-5.026909 6.702545 1.722182 9.355636 6.888727 17.408 8.098909 3.258182 0.465455 6.656-1.256727 9.774546-0.930909 14.894545 1.675636 26.205091 11.170909 37.934545 19.781818 9.634909 7.028364 16.011636 5.585455 27.229091 8.843636 8.238545 2.327273 23.412364 14.242909 22.621091 24.715637-0.139636 1.861818-7.307636 11.264-8.564364 15.499636 2.141091 1.489455 16.756364-1.815273 21.038546-2.094546-1.396364 1.629091-11.357091 8.657455-11.357091 4.933819 0 1.861818 7.028364 5.818182 8.750545 6.981818 5.213091-16.849455 13.730909-5.957818 24.017455-1.815273 8.704 3.584 19.456 3.770182 28.811636 6.004364 7.912727 1.861818 25.320727 7.214545 31.185455 13.684363 7.074909 7.819636 2.187636 20.48-3.025455 28.206546-6.842182 10.146909-17.128727 14.056727-21.410909 26.018909-3.351273 9.495273-0.837818 19.083636-2.746182 29.556364-2.606545 14.196364-4.654545 9.216-13.824 17.92-7.68 7.307636-0.139636 6.050909-10.612363 10.705454-10.519273 4.654545-19.781818 3.258182-27.042909 14.801455a19.269818 19.269818 0 0 0 0.698181-2.187637c-3.072 4.282182-4.608 13.125818-6.050909 16.011637-3.677091 7.400727-8.750545 12.055273-14.522181 18.152727-2.234182 2.373818-22.714182 30.394182-23.877819 28.113454-1.536-2.885818-17.687273 2.978909-18.432-1.210181 0.651636 3.490909-0.139636 2.327273 3.863273 4.328727-3.723636 23.04-13.451636 26.484364-36.026182 26.717091 1.954909 11.031273-8.145455 8.843636-12.846545 14.754909-2.792727 3.490909-4.049455 13.265455-5.957818 17.733818-1.210182 2.839273-10.007273 14.149818-10.007273 16.384 0 2.094545 2.932364 5.12 5.725091 8.005818-15.872 3.165091-32.116364 5.352727-48.593455 6.702546 3.072-3.909818 3.816727-7.307636-6.004363-7.773091 2.653091-7.168 8.843636-11.264 11.450181-18.152727 1.210182-3.258182 0.186182-4.608 1.256728-7.819637 3.584-11.170909 2.001455-6.981818 0-15.639273-4.747636-20.340364 1.675636-25.925818 7.214545-44.544 5.678545-19.176727 5.166545-43.985455 8.843637-64.60509 1.675636-9.867636 4.514909-30.394182 1.11709-39.749819-3.863273-10.519273-20.852364-18.757818-28.625454-25.832727-10.984727-10.053818-16.849455-20.898909-24.994909-33.28-4.189091-6.330182-8.843636-12.520727-12.101818-19.362909-6.935273-14.661818 0-5.911273 1.163636-14.568727 1.117091-8.378182-0.977455-15.825455 2.327273-24.576 3.677091-9.681455 12.8-15.732364 15.825454-25.506909 2.699636-8.704 0.605091-19.642182-8.285091-22.574546-4.980364-1.582545-10.472727 2.141091-15.499636 1.303273-6.981818-1.117091-14.848-6.330182-20.293818-10.472727-7.633455-5.864727-10.519273-15.313455-18.618182-20.852364-6.842182-4.561455-11.636364-1.861818-18.944-4.002909-7.586909-2.234182-12.288-11.636364-18.432-14.522182-9.169455-4.421818-14.336 1.861818-24.064 0.605091-8.238545-1.070545-20.852364-10.24-28.532364-13.684364-15.685818-7.028364-25.227636-14.801455-31.511272-30.72-5.352727-13.684364-13.218909-20.014545-22.434909-31.418181-9.309091-11.543273-12.241455-21.364364-26.624-24.436364-1.722182-0.372364 3.490909 12.101818 4.049454 13.125818 5.12 9.495273 12.846545 18.245818 19.083636 27.089455 9.122909 13.079273 5.259636 15.546182-4.049454 2.885818-10.658909-14.429091-22.993455-28.858182-32.209455-44.171637-3.490909-5.771636-2.792727-9.541818-8.564363-15.034181-5.585455-5.306182-12.846545-7.912727-18.432-12.939637-20.154182-18.152727-23.784727-42.356364-21.504-68.189091 0.744727-8.424727 3.770182-15.173818 2.466909-23.272727a32.209455 32.209455 0 0 0-10.053818-17.221818l-5.818182-9.216c-4.561455-7.633455-8.145455-15.080727-15.36-21.317818a368.919273 368.919273 0 0 0-25.134546-19.083637 432.965818 432.965818 0 0 1 173.707637-130.094545 25.6 25.6 0 0 0 4.235636 10.24c5.632 8.331636 11.031273 7.633455 22.016 9.960727-1.210182 12.8-16.104727 12.893091-26.205091 11.496727-12.008727-1.675636-24.669091-5.678545-35.141818 4.887273 5.771636 3.490909 21.597091 16.989091 19.502545 2.885818 11.543273-0.605091 22.667636-0.930909 33.978182 0.465455 4.514909 0.558545 19.642182 5.632 23.738182 3.304727 1.768727-0.930909 3.584-9.495273 5.399273-12.101818-3.211636 0-6.656-1.629091-9.867637-1.303273 7.447273-9.588364 14.894545-2.048 24.436364 2.327273-10.472727 6.376727-4.282182 21.643636 5.957818 9.262545 8.424727-10.24-2.048-17.594182-12.706909-23.552 10.752-13.498182 17.408-14.708364 27.508364 0.512 1.675636-9.402182 9.262545-5.585455 17.175273-4.933818v-2.327272c-3.490909 0.046545-7.214545-1.954909-10.65891-1.582546 8.052364-12.846545 2.932364-15.825455 14.429091-20.014545 9.169455-3.351273 35.374545-0.232727 38.539637-8.843637-18.292364 3.537455-40.401455 4.421818-56.925091 12.753455-7.121455 3.584-15.592727 14.894545-22.714182 7.540363-7.307636-7.540364 5.213091-19.735273 11.636364-23.412363h-1.582546a430.359273 430.359273 0 0 1 148.386909-5.399273c-6.609455 3.490909-1.722182 5.864727-6.516363 9.402182-9.309091 6.795636-25.646545 12.474182-36.677819 16.756364 13.963636 0 47.802182 13.172364 54.318546-6.516364l-13.498182-2.048c8.378182-5.585455 17.780364-10.100364 27.648-13.405091a430.452364 430.452364 0 0 1 228.305455 126.231273h-1.256728z m78.754909 171.194182c0.791273-1.722182 2.653091-2.327273 3.444364-3.723636 1.629091-2.932364 1.256727-4.980364 3.258182-7.493818 2.141091-2.792727 5.026909-3.444364 7.447273-5.585455a8.750545 8.750545 0 0 0 1.954909-2.513455c7.168 20.061091 12.893091 40.820364 17.035636 62.138182-0.093091 0.139636-0.186182 0.372364-0.325818 0.465455a35.933091 35.933091 0 0 1-9.309091 1.908363c-4.933818 0.186182-8.564364-3.072-12.101818-6.190545a57.250909 57.250909 0 0 1-10.472727-11.403636c-2.699636-4.328727-1.024-8.797091-0.837819-13.730909 0.186182-4.189091-1.861818-10.146909-0.093091-13.870546z m5.585455 223.464727c-8.378182-7.261091-18.245818-16.989091-24.203636-26.437818-6.330182-10.053818-2.420364-20.386909-1.954909-31.883636 0.372364-9.681455-4.328727-23.458909-0.232728-32.116364 1.861818-4.002909 6.237091-5.352727 8.005818-8.610909 3.770182-6.888727 2.932364-11.543273 7.58691-17.454545 4.980364-6.376727 11.636364-7.959273 17.221818-12.939637 5.771636-5.259636 5.585455-9.402182 9.309091-16.104727 2.699636-4.887273 8.983273-13.079273 14.987636-17.361455a433.384727 433.384727 0 0 1-9.634909 176.407273c-8.052364-2.048-14.661818-7.866182-21.085091-13.498182z" /></svg>