<?xml version="1.0" encoding="UTF-8"?>
<svg width="17px" height="18px" viewBox="0 0 17 18" version="1.1" xmlns="http://www.w3.org/2000/svg" xmlns:xlink="http://www.w3.org/1999/xlink">
    <!-- Generator: Sketch 50 (54983) - http://www.bohemiancoding.com/sketch -->
    <title>通航管理</title>
    <desc>Created with Sketch.</desc>
    <defs>
        <linearGradient x1="100%" y1="100%" x2="0%" y2="0%" id="linearGradient-1">
            <stop stop-color="#1890FF" offset="0%"></stop>
            <stop stop-color="#59C2FF" offset="100%"></stop>
        </linearGradient>
    </defs>
    <g id="Page-1" stroke="none" stroke-width="1" fill="none" fill-rule="evenodd">
        <g id="首页" transform="translate(-33.000000, -255.000000)" fill-rule="nonzero">
            <g id="母版">
                <g id="Group-19">
                    <g transform="translate(31.032292, 119.000000)">
                        <g id="通航管理" transform="translate(0.000000, 134.000000)">
                            <rect id="Rectangle-path" fill="#000000" opacity="0" x="0" y="0" width="20.0208333" height="20"></rect>
                            <path d="M14.8813642,13.4049609 C14.711148,13.3366797 14.5167269,13.3752148 14.3866306,13.5043945 C14.0648114,13.8239063 13.4609408,14.401875 13.0058579,14.8150586 C12.8226203,14.9814453 12.8966622,15.2835742 13.1356023,15.348457 C13.3372183,15.4032031 13.5313461,15.4633984 13.7165975,15.5288281 C13.9773571,15.620918 14.197684,15.7154688 14.3817818,15.8065234 C14.5988632,15.9138867 14.5988632,16.2220898 14.3817818,16.3294531 C14.197684,16.4205078 13.9773571,16.5150391 13.7165975,16.6071484 C12.6760225,16.9746875 11.3557033,17.1770703 9.99886167,17.1770703 C8.64202008,17.1770703 7.32170087,16.974668 6.28112587,16.6071484 C6.02036625,16.5150586 5.80003933,16.4205078 5.61594151,16.3294531 C5.39886015,16.2220898 5.39886015,15.9138867 5.61594151,15.8065234 C5.80003933,15.7154688 6.02036625,15.6209375 6.28112587,15.5288281 C6.4732594,15.4609766 6.6749341,15.3987695 6.88462496,15.3424414 C7.12389738,15.2781641 7.19823254,14.975625 7.01497544,14.8090625 C6.55957969,14.3950977 5.95498572,13.8159375 5.63304915,13.4958203 C5.50326567,13.3667773 5.30933339,13.3280859 5.13921497,13.3957813 C3.5222394,14.0391211 2.49652362,14.9975586 2.49652362,16.0679883 C2.49652362,18.0050977 5.85544855,19.5754297 9.99886167,19.5754297 C14.1422748,19.5754297 17.5011997,18.0050977 17.5011997,16.0679883 C17.5012193,15.0026172 16.4851229,14.0482227 14.8813642,13.4049609 Z M8.75661198,14.5674609 L11.2375139,14.5674609 L11.2375139,9.56273437 L16.1216978,9.56273437 C16.3176439,9.56273437 16.5003536,9.46388672 16.6074181,9.29992187 L18.6491912,6.81244141 C18.8144804,6.55933594 18.8125252,6.23208984 18.6442446,5.9809375 L16.6080438,3.56136719 C16.5004122,3.40072266 16.3196382,3.30427734 16.1261165,3.30427734 L11.2375139,3.30427734 L11.2375139,2.09980469 L8.75661198,2.09980469 L8.75661198,3.30427734 L3.74688723,3.30427734 L3.74688723,9.56273437 L8.75661198,9.56273437 L8.75661198,14.5674609 Z" id="Shape" fill="url(#linearGradient-1)"></path>
                        </g>
                    </g>
                </g>
            </g>
        </g>
    </g>
</svg>