<?xml version="1.0" standalone="no"?><!DOCTYPE svg PUBLIC "-//W3C//DTD SVG 1.1//EN" "http://www.w3.org/Graphics/SVG/1.1/DTD/svg11.dtd"><svg t="1551172499244" class="icon" style="" viewBox="0 0 1024 1024" version="1.1" xmlns="http://www.w3.org/2000/svg" p-id="7431" xmlns:xlink="http://www.w3.org/1999/xlink" width="200" height="200"><defs><style type="text/css"></style></defs><path d="M761.6 603.733333l-234.666667-213.333333 0 0C522.666667 386.133333 518.4 384 512 384s-10.666667 2.133333-14.933333 6.4l0 0-234.666667 213.333333 0 0C258.133333 605.866667 256 612.266667 256 618.666667c0 12.8 8.533333 21.333333 21.333333 21.333333 6.4 0 10.666667-2.133333 14.933333-6.4l0 0L512 435.2l219.733333 200.533333 0 0c4.266667 4.266667 8.533333 6.4 14.933333 6.4 12.8 0 21.333333-8.533333 21.333333-21.333333C768 612.266667 765.866667 605.866667 761.6 603.733333L761.6 603.733333zM896 42.666667 128 42.666667C81.066667 42.666667 42.666667 81.066667 42.666667 128l0 768c0 46.933333 38.4 85.333333 85.333333 85.333333l768 0c46.933333 0 85.333333-38.4 85.333333-85.333333L981.333333 128C981.333333 81.066667 942.933333 42.666667 896 42.666667zM938.666667 896c0 23.466667-19.2 42.666667-42.666667 42.666667L128 938.666667c-23.466667 0-42.666667-19.2-42.666667-42.666667L85.333333 128c0-23.466667 19.2-42.666667 42.666667-42.666667l768 0c23.466667 0 42.666667 19.2 42.666667 42.666667L938.666667 896z" p-id="7432" fill="#1890ff"></path></svg>