<?xml version="1.0" encoding="UTF-8"?>
<svg width="16px" height="15px" viewBox="0 0 16 15" version="1.1" xmlns="http://www.w3.org/2000/svg" xmlns:xlink="http://www.w3.org/1999/xlink">
    <!-- Generator: Sketch 50 (54983) - http://www.bohemiancoding.com/sketch -->
    <title>危防管理</title>
    <desc>Created with Sketch.</desc>
    <defs>
        <linearGradient x1="100%" y1="100%" x2="0%" y2="0%" id="linearGradient-1">
            <stop stop-color="#B122E5" offset="0%"></stop>
            <stop stop-color="#FF63DE" offset="100%"></stop>
        </linearGradient>
    </defs>
    <g id="Page-1" stroke="none" stroke-width="1" fill="none" fill-rule="evenodd">
        <g id="首页" transform="translate(-33.000000, -300.000000)" fill-rule="nonzero">
            <g id="母版">
                <g id="Group-19">
                    <g transform="translate(31.032292, 119.000000)">
                        <g id="危防管理" transform="translate(0.000000, 179.000000)">
                            <rect id="Rectangle-path" fill="#000000" opacity="0" x="0" y="0" width="20.0208333" height="20"></rect>
                            <path d="M14.5599695,15.6470471 L14.5639709,8.37813531 C14.5639709,7.14699711 14.0798056,5.98580994 13.2015058,5.1084241 C12.3232061,4.23103828 11.1828168,3.74737684 9.9503962,3.74737684 C8.71797556,3.74737684 7.55557883,4.23103828 6.67727904,5.1084241 C5.79897928,5.98580992 5.31481402,7.14699711 5.31481402,8.37813531 L5.32081607,15.6450485 L4.08639475,15.6470471 L4.07439066,8.38013391 C4.07439066,7.59068652 4.23044392,6.82322375 4.53854908,6.09773158 C4.83465015,5.40021984 5.25879491,4.77265914 5.79897928,4.23303688 C6.33916365,3.69341461 6.96737806,3.26971121 7.66561638,2.97391826 C8.38986357,2.66613371 9.15812578,2.51024283 9.94839551,2.51024283 C10.7386652,2.51024283 11.4849199,2.66613371 12.2091671,2.97391826 C12.9074054,3.26971121 13.5356199,3.69341461 14.0758042,4.23303688 C14.6159886,4.77265914 15.0401334,5.40021984 15.3362344,6.09773158 C15.6443396,6.82122514 15.8003928,7.58868791 15.8003928,8.3761367 L15.8003928,15.6430499 L14.5599695,15.6470471 Z M17.0348142,16.8581993 L2.9820178,16.8581993 C2.63990104,16.8581993 2.36180611,16.5803937 2.36180611,16.2386329 C2.36180611,15.8968722 2.63990102,15.6190666 2.96001029,15.6190666 L17.0128067,15.6190666 C17.3769309,15.6190666 17.6550259,15.8968722 17.6550259,16.2386329 C17.6550259,16.5803937 17.3769309,16.8581993 17.0348142,16.8581993 Z M11.8970606,9.70320775 L10.3205225,9.70320775 L10.3205225,6.27960428 L8.07775702,10.4826621 L9.71031423,10.4826621 L9.71031423,13.7503747 L11.8970606,9.70320775 Z" id="Shape" fill="url(#linearGradient-1)"></path>
                        </g>
                    </g>
                </g>
            </g>
        </g>
    </g>
</svg>