<?xml version="1.0" encoding="UTF-8"?>
<svg width="22px" height="26px" viewBox="0 0 22 26" version="1.1" xmlns="http://www.w3.org/2000/svg" xmlns:xlink="http://www.w3.org/1999/xlink">
    <!-- Generator: Sketch 50 (54983) - http://www.bohemiancoding.com/sketch -->
    <title>河道监管</title>
    <desc>Created with Sketch.</desc>
    <defs></defs>
    <g id="Page-1" stroke="none" stroke-width="1" fill="none" fill-rule="evenodd">
        <g id="5-一键巡查" transform="translate(-389.000000, -75.000000)" fill="#01579B" fill-rule="nonzero">
            <g id="Group-5" transform="translate(21.000000, 61.000000)">
                <g id="Group-2">
                    <g transform="translate(365.000000, 12.000000)">
                        <g id="河道监管" transform="translate(0.000000, 1.000000)">
                            <rect id="Rectangle-path" opacity="0" x="0" y="0" width="28" height="28"></rect>
                            <path d="M13.7556734,1.6953125 L3.36795094,3.76824706 L3.36795094,16.2980531 C3.3771708,17.0802056 3.57078811,17.8485282 3.93343643,18.5400186 C4.3343517,19.3194844 4.83037497,20.0462281 5.41015259,20.7036153 C6.04325047,21.4243019 6.73781417,22.0881327 7.48769708,22.6874244 C8.23911664,23.2959359 9.03202563,23.8522016 9.85720417,24.3546846 C10.6024772,24.8141415 11.3800197,25.2198159 12.1836852,25.5717077 C12.9274216,25.8944032 13.0810861,26.1156801 13.6465716,26.2370751 L13.8847516,26.2816378 L14.1459813,26.2370751 C14.8082754,26.0788006 15.4521298,25.8559871 16.0698613,25.5717077 C16.8521374,25.221978 17.6076423,24.8152072 18.3302665,24.3546846 C19.1308587,23.8491283 19.8976448,23.2928627 20.6229414,22.6874244 C21.3528479,22.0865961 22.0258986,21.4243019 22.6359468,20.7036153 C23.1968223,20.0428578 23.6762557,19.3175612 24.060417,18.5400186 C24.4107721,17.8439183 24.5967062,17.0771323 24.6043894,16.2980531 L24.6043894,3.76824706 L13.7556734,1.6953125 Z M23.0400845,15.5281938 C23.1768459,17.3767781 21.9690427,18.9272533 21.5756615,19.40054 C21.0237952,20.057929 20.4138444,20.6642798 19.7532001,21.2122449 C19.0939793,21.7639005 18.4009522,22.2725302 17.6756556,22.736597 C17.0225814,23.1561012 16.3372375,23.5264328 15.6288441,23.846055 C15.1464106,24.0455063 14.6394094,24.1793629 14.121395,24.2440461 L13.8847516,24.2839989 L13.6680846,24.2440461 C13.2923679,24.168513 12.930914,24.0341994 12.5970428,23.846055 C11.8686729,23.5248961 11.1648894,23.1545646 10.4903021,22.7350604 C9.72966263,22.2878966 8.99975608,21.7930968 8.3051924,21.2491244 C7.6252109,20.7028129 6.99572549,20.0964703 6.42433851,19.4374195 C5.68651839,18.6209476 5.17157274,17.6281028 4.9291826,16.5546729 L4.9291826,5.26032966 L13.7664299,3.27037398 L23.0385479,5.26032966 L23.0400845,15.5281938 Z M13.7049641,13.5136517 L13.7049641,22.8410889 C14.1674943,22.7319871 16.7844013,21.7439241 17.7417314,21.2214647 C23.1384298,18.2695691 22.067388,13.5121151 22.067388,13.5121151 L13.7049641,13.5121151 L13.7049641,13.5136517 Z M6.17079204,5.90111078 L6.17079204,13.6227536 L13.8033094,13.6227536 L13.8033094,4.47971385 L6.17079204,5.90111078 Z" id="Shape"></path>
                        </g>
                    </g>
                </g>
            </g>
        </g>
    </g>
</svg>