<?xml version="1.0" encoding="UTF-8"?>
<svg width="13px" height="16px" viewBox="0 0 13 16" version="1.1" xmlns="http://www.w3.org/2000/svg" xmlns:xlink="http://www.w3.org/1999/xlink">
    <!-- Generator: Sketch 50 (54983) - http://www.bohemiancoding.com/sketch -->
    <title>警察半身</title>
    <desc>Created with Sketch.</desc>
    <defs>
        <filter x="-3.3%" y="-13.0%" width="106.7%" height="129.6%" filterUnits="objectBoundingBox" id="filter-1">
            <feOffset dx="0" dy="-1" in="SourceAlpha" result="shadowOffsetOuter1"></feOffset>
            <feColorMatrix values="0 0 0 0 0   0 0 0 0 0   0 0 0 0 0  0 0 0 0.02 0" type="matrix" in="shadowOffsetOuter1" result="shadowMatrixOuter1"></feColorMatrix>
            <feOffset dx="0" dy="1" in="SourceAlpha" result="shadowOffsetOuter2"></feOffset>
            <feGaussianBlur stdDeviation="1" in="shadowOffsetOuter2" result="shadowBlurOuter2"></feGaussianBlur>
            <feColorMatrix values="0 0 0 0 0   0 0 0 0 0   0 0 0 0 0  0 0 0 0.2 0" type="matrix" in="shadowBlurOuter2" result="shadowMatrixOuter2"></feColorMatrix>
            <feMerge>
                <feMergeNode in="shadowMatrixOuter1"></feMergeNode>
                <feMergeNode in="shadowMatrixOuter2"></feMergeNode>
                <feMergeNode in="SourceGraphic"></feMergeNode>
            </feMerge>
        </filter>
    </defs>
    <g id="Page-1" stroke="none" stroke-width="1" fill="none" fill-rule="evenodd">
        <g id="4.3-结束巡航" transform="translate(-411.000000, -507.000000)" fill="#01579B" fill-rule="nonzero">
            <g id="间距-&lt;v25&gt;" transform="translate(294.000000, 503.000000)">
                <g id="Group-7">
                    <g id="间距-&lt;h5-&gt;">
                        <g id="Group-2" filter="url(#filter-1)" transform="translate(110.000000, 0.000000)">
                            <g id="警察半身" transform="translate(5.000000, 4.000000)">
                                <path d="M2.5194375,15.36975 C2.602125,14.171625 2.7691875,12.551625 3.1370625,11.066625 C3.213,10.6835625 3.486375,10.36125 3.4948125,10.3494375 C3.53025,10.121625 6.321375,10.121625 6.321375,10.121625 L6.78375,10.07775 C6.7179375,10.486125 6.6673125,11.1088125 6.8445,11.6420625 C7.0723125,12.342375 7.4368125,13.037625 7.93125,13.4510625 L8.035875,11.58975 L8.987625,11.58975 L9.1513125,13.334625 C9.49725,12.8401875 9.9005625,12.0605625 9.94275,11.0683125 C9.9765,10.2920625 10.1705625,9.9376875 10.337625,9.774 C11.4935625,9.82125 12.9448125,10.0321875 13.527,10.351125 C14.0821875,10.654875 14.256,12.5533125 14.758875,15.3714375 L2.5194375,15.36975 Z M8.8711875,11.3214375 L8.2738125,11.3214375 L7.79625,10.9215 L8.5134375,9.9883125 L9.2289375,10.7881875 L8.8711875,11.3214375 Z M12.0403125,3.398625 C11.755125,2.8265625 10.094625,1.9693125 8.28225,1.91025 C6.4715625,1.8495 4.552875,2.9008125 4.5680625,3.6703125 C4.58325,4.438125 5.5333125,4.768875 5.5333125,4.768875 C5.484375,4.917375 5.5096875,5.4945 5.5096875,5.4945 C5.5096875,5.4945 5.5535625,5.5738125 5.63625,5.6851875 C5.356125,9.37575 8.582625,9.4381875 8.582625,9.4381875 C11.3788125,9.1479375 11.1560625,6.1104375 11.1290625,5.6716875 C11.1189375,5.511375 11.0986875,5.383125 11.0750625,5.268375 C11.1105,5.0203125 11.012625,4.7638125 11.012625,4.7638125 C11.421,4.6018125 12.3271875,3.969 12.0403125,3.398625 Z M7.8249375,3.1100625 C7.8215625,3.0864375 7.8181875,3.061125 7.8181875,3.0358125 C7.8181875,2.7253125 8.0915625,2.4721875 8.43075,2.4721875 C8.7699375,2.4721875 9.0433125,2.7253125 9.0433125,3.0358125 C9.0433125,3.074625 9.03825,3.1134375 9.0298125,3.15225 C9.2120625,3.135375 9.4095,3.1201875 9.588375,3.1168125 C9.588375,3.1168125 9.07875,3.35475 8.7885,3.4948125 C8.744625,3.5235 8.6990625,3.5454375 8.64675,3.564 C8.643375,3.5656875 8.64,3.5690625 8.6349375,3.57075 C8.6349375,3.57075 8.6180625,3.5758125 8.5910625,3.5791875 C8.5404375,3.5926875 8.4864375,3.601125 8.43075,3.601125 C8.420625,3.601125 8.4105,3.59775 8.3986875,3.59775 C8.2636875,3.59775 8.0915625,3.57075 7.9531875,3.4543125 C7.9531875,3.4543125 7.7439375,3.310875 7.2714375,3.115125 C7.2714375,3.1168125 7.522875,3.08475 7.8249375,3.1100625 Z M10.5519375,4.73175 L5.9214375,4.73175 L5.9214375,4.185 L10.553625,4.185 L10.553625,4.73175 L10.5519375,4.73175 Z" id="形状"></path>
                            </g>
                        </g>
                    </g>
                </g>
            </g>
        </g>
    </g>
</svg>