<?xml version="1.0" encoding="UTF-8"?>
<svg width="16px" height="16px" viewBox="0 0 16 16" version="1.1" xmlns="http://www.w3.org/2000/svg" xmlns:xlink="http://www.w3.org/1999/xlink">
    <!-- Generator: Sketch 50 (54983) - http://www.bohemiancoding.com/sketch -->
    <title>ship</title>
    <desc>Created with Sketch.</desc>
    <defs></defs>
    <g id="Page-1" stroke="none" stroke-width="1" fill="none" fill-rule="evenodd">
        <g id="4.3-结束巡航" transform="translate(-301.000000, -508.000000)" fill="#01579B" fill-rule="nonzero">
            <g id="间距-&lt;v25&gt;" transform="translate(294.000000, 503.000000)">
                <g id="Group-7">
                    <g id="间距-&lt;h5-&gt;">
                        <g id="Group-2">
                            <g id="ship" transform="translate(6.000000, 4.000000)">
                                <path d="M14.6120625,13.77 C14.340375,13.77 14.0990625,13.79025 13.881375,13.824 L16.0498125,9.64575 C16.1274375,9.49725 16.13925,9.3234375 16.08525,9.1648125 C16.0295625,9.0061875 15.913125,8.8779375 15.7595625,8.8104375 L12.409875,7.317 L12.409875,3.88125 C12.409875,3.67875 12.3103125,3.4914375 12.14325,3.378375 L8.937,1.2015 C8.7328125,1.063125 8.467875,1.063125 8.2636875,1.1998125 L5.0236875,3.3766875 C4.856625,3.48975 4.755375,3.67875 4.755375,3.88125 L4.755375,7.3355625 L1.43775,8.8104375 C1.285875,8.8779375 1.16775,9.0061875 1.1120625,9.163125 C1.056375,9.3200625 1.0681875,9.493875 1.144125,9.6440625 L3.756375,14.7555 C3.4543125,14.8955625 3.108375,14.9866875 2.58525,14.9866875 C2.257875,14.9866875 2.00475,14.9495625 1.8005625,14.8955625 C1.522125,14.8213125 1.2301875,14.958 1.103625,15.2161875 C0.934875,15.5604375 1.123875,15.9721875 1.4934375,16.0700625 C1.82925,16.1595 2.183625,16.2 2.5869375,16.2 C3.756375,16.2 4.3655625,15.8304375 4.903875,15.50475 C5.383125,15.2145 5.7628125,14.985 6.5964375,14.985 C7.4300625,14.985 7.80975,15.2145 8.289,15.50475 C8.8239375,15.8304375 9.433125,16.2 10.6025625,16.2 C10.6936875,16.2 10.7814375,16.1983125 10.8658125,16.19325 L10.897875,16.19325 C11.059875,16.19325 11.2235625,16.173 11.383875,16.1375625 C12.0740625,16.01775 12.517875,15.7494375 12.9211875,15.50475 C13.39875,15.2145 13.77675,14.985 14.6120625,14.985 C14.9394375,14.985 15.1925625,15.022125 15.3984375,15.076125 C15.676875,15.150375 15.9688125,15.0136875 16.095375,14.7555 C16.264125,14.41125 16.075125,13.9995 15.7055625,13.901625 C15.36975,13.8121875 15.0136875,13.77 14.6120625,13.77 Z M9.18675,14.62725 C9.095625,14.576625 9.0061875,14.5209375 8.9116875,14.4635625 C8.64,14.2981875 8.34975,14.1226875 7.9785,13.989375 L7.9785,9.1125 C7.9785,8.7766875 8.2485,8.505 8.582625,8.505 C8.91675,8.505 9.18675,8.7766875 9.18675,9.1125 L9.18675,14.62725 Z M11.1999375,6.7786875 L8.8509375,5.7324375 C8.6956875,5.66325 8.5168125,5.66325 8.3615625,5.7324375 L5.963625,6.7989375 L5.963625,4.20525 L8.5978125,2.4350625 L11.201625,4.2035625 L11.201625,6.7786875 L11.1999375,6.7786875 Z" id="形状"></path>
                            </g>
                        </g>
                    </g>
                </g>
            </g>
        </g>
    </g>
</svg>