<?xml version="1.0" encoding="UTF-8"?>
<svg width="25px" height="25px" viewBox="0 0 25 25" version="1.1" xmlns="http://www.w3.org/2000/svg" xmlns:xlink="http://www.w3.org/1999/xlink">
    <!-- Generator: Sketch 50 (54983) - http://www.bohemiancoding.com/sketch -->
    <title>周边游</title>
    <desc>Created with Sketch.</desc>
    <defs></defs>
    <g id="Page-1" stroke="none" stroke-width="1" fill="none" fill-rule="evenodd">
        <g id="4.3-结束巡航" transform="translate(-353.000000, -76.000000)" fill="#01579B" fill-rule="nonzero">
            <g id="周边游" transform="translate(351.000000, 73.000000)">
                <path d="M26.2136905,11.1278439 C25.7096561,9.77804233 24.9802249,8.53363095 24.0456019,7.4292328 C23.5736772,6.87152778 22.7389881,6.8021164 22.1813823,7.27397487 C21.6237434,7.74589947 21.5542328,8.58052249 22.0261574,9.13819444 C23.5276124,10.9124339 24.3544974,13.1717593 24.3544974,15.5 C24.3544974,20.9337632 19.9337632,25.3544974 14.5,25.3544974 C9.0662037,25.3544974 4.64550265,20.9337632 4.64550265,15.5 C4.64550265,10.0662037 9.0662037,5.64550265 14.5,5.64550265 C16.0627315,5.64550265 17.5564815,6.00013228 18.9397817,6.69957011 C19.5915675,7.0291336 20.3874008,6.76795635 20.7170635,6.11600529 C21.0467262,5.4640873 20.7854167,4.66835317 20.1334987,4.33872354 C18.3766204,3.45039683 16.4812831,3 14.5,3 C12.8130952,3 11.175959,3.33068783 9.63406085,3.98287037 C8.14540344,4.61253307 6.80873016,5.51362434 5.66117725,6.66117725 C4.51362434,7.80873016 3.6125,9.14540344 2.98287037,10.6340278 C2.33068783,12.1759259 2,13.8130952 2,15.5 C2,17.1869048 2.33068783,18.8240741 2.98287037,20.3659392 C3.61253307,21.8545966 4.51362434,23.1912698 5.66117725,24.3388228 C6.80873016,25.4863757 8.14540344,26.3875 9.63406085,27.0171296 C11.175959,27.6693122 12.8130952,28 14.5,28 C16.1869048,28 17.8240741,27.6693122 19.3659722,27.0171296 C20.8546296,26.3875 22.1913029,25.4863757 23.3388228,24.3388228 C24.4863757,23.1912698 25.3875,21.8545966 26.0171296,20.3659392 C26.6693122,18.8240741 27,17.1869048 27,15.5 C27,13.9962302 26.7354497,12.5252315 26.2136905,11.1278439 Z M14.5013889,8.16415344 C12.984127,8.16415344 11.5585317,8.73392857 10.4871032,9.76841931 C9.43214286,10.787037 8.8139881,12.160086 8.74695767,13.6343585 C8.68921958,14.9012566 9.22152778,16.4253968 10.328869,18.1645833 C11.3425926,19.7565146 12.5170635,21.0269841 12.8528439,21.3784722 C13.3619048,21.9111442 13.7300265,22.2514881 13.9989418,22.5000661 L14.3619048,22.8358466 L15.3009921,21.9434524 C15.3205357,21.9250331 15.497586,21.7580026 15.7727513,21.4836971 C16.2716601,21.0400132 16.8560847,20.4118386 17.4202381,19.7127315 C18.0881614,18.9340278 18.6223214,18.2185847 19.007672,17.5861772 C19.7403108,16.3837963 20.042791,15.2731481 20.1673942,14.5517857 C20.2066468,14.3443783 20.2329696,14.1380952 20.2456019,13.938922 C20.255787,13.8042328 20.2569775,13.7187169 20.2570767,13.6965939 C20.2682209,12.2723545 19.7088624,10.9181217 18.6820437,9.88323413 C17.5980489,8.79080688 16.0742063,8.16415344 14.5013889,8.16415344 Z M14.5000331,15.5046627 C13.2573413,15.5046627 12.2464286,14.4937169 12.2464286,13.2511243 C12.2464286,12.0085317 13.2573413,10.997586 14.5000331,10.997586 C15.7426587,10.997586 16.7535714,12.0085317 16.7535714,13.2511243 C16.7535714,14.4937169 15.7426587,15.5046627 14.5000331,15.5046627 Z" id="形状"></path>
            </g>
        </g>
    </g>
</svg>