<?xml version="1.0" encoding="UTF-8"?>
<svg width="30px" height="29px" viewBox="0 0 30 29" version="1.1" xmlns="http://www.w3.org/2000/svg" xmlns:xlink="http://www.w3.org/1999/xlink">
    <!-- Generator: Sketch 50 (54983) - http://www.bohemiancoding.com/sketch -->
    <title>警报</title>
    <desc>Created with Sketch.</desc>
    <defs></defs>
    <g id="Page-4" stroke="none" stroke-width="1" fill="none" fill-rule="evenodd">
        <g id="首页-执勤人员" transform="translate(-1497.000000, -106.000000)" fill="#FFFFFF" fill-rule="nonzero">
            <g id="警情" transform="translate(1459.000000, 95.000000)">
                <g id="Group-5" transform="translate(17.100000, 0.000000)">
                    <g id="警报" transform="translate(21.000000, 11.000000)">
                        <path d="M7.00000003,14.7636364 L7.00000003,21.6181818 L22.4736842,21.6181818 L22.4736842,14.7636364 L22.4736842,14.3418182 C22.2631579,10.2290909 18.8947368,6.96000001 14.7368421,6.95999998 C10.5789474,6.95999998 7.21052633,10.2290909 7.00000003,14.3418182 L7.00000003,14.7636364 Z M22.631579,8.91090906 L26.1578947,6.37999999 C26.4210526,6.16909091 26.4736842,5.8 26.3157895,5.53636363 C26.1052632,5.27272726 25.7368421,5.22000001 25.4736842,5.3781818 L21.9473684,7.90909091 C21.6842105,8.11999999 21.631579,8.4890909 21.7894737,8.75272727 C22,9.01636364 22.3684211,9.06909089 22.631579,8.91090906 Z M4.31578947,24.6763636 L4.31578947,26.1 L25.1578947,26.1 L25.1578947,24.7290909 C25.1578947,23.5163637 24.1578947,22.5145455 22.9473684,22.5145454 L6.57894738,22.5145454 C5.31578948,22.4618181 4.31578947,23.4636363 4.31578947,24.6763636 Z M14.7368421,5.48363634 C15.0526316,5.48363634 15.3157895,5.21999998 15.3157895,4.90363635 L15.3157895,0.579999989 C15.3157895,0.263636368 15.0526316,0 14.7368421,0 C14.4210527,0 14.1578948,0.263636368 14.1578948,0.579999989 L14.1578948,4.90363635 C14.1578948,5.21999998 14.4210527,5.48363634 14.7368421,5.48363634 Z M6.84210528,9.12181818 C7.10526318,9.33272726 7.47368423,9.28000001 7.68421054,9.06909089 C7.89473684,8.80545452 7.84210528,8.43636361 7.63157894,8.22545453 L4.31578947,5.43090909 C4.05263157,5.22000001 3.68421052,5.27272726 3.47368422,5.48363634 C3.26315791,5.74727271 3.31578947,6.11636362 3.52631581,6.3272727 L6.84210528,9.12181818 Z M5.47368422,15.3963636 C5.47368422,15.08 5.21052632,14.8163636 4.89473687,14.8163636 L0.578947393,14.8163636 C0.263157935,14.8163636 3.5310444e-08,15.08 0,15.3963636 C0,15.7127272 0.263157899,15.9763636 0.578947393,15.9763636 L4.89473687,15.9763636 C5.21052632,15.9763636 5.47368422,15.7127272 5.47368422,15.3963636 Z M2.94736842,26.1527273 L26.631579,26.1527273 L26.631579,29 L2.94736842,29 L2.94736842,26.1527273 Z M28.4210526,14.8163636 L24.1052632,14.8163636 C23.7894737,14.8163636 23.5263158,15.08 23.5263158,15.3963636 C23.5263158,15.7127272 23.7894737,15.9763636 24.1052632,15.9763636 L28.4210526,15.9763636 C28.7368421,15.9763636 29,15.7127272 29,15.3963636 C29,15.08 28.7368421,14.8163636 28.4210526,14.8163636 Z" id="Shape"></path>
                    </g>
                </g>
            </g>
        </g>
    </g>
</svg>