<?xml version="1.0" encoding="UTF-8"?>
<svg width="14px" height="14px" viewBox="0 0 14 14" version="1.1" xmlns="http://www.w3.org/2000/svg" xmlns:xlink="http://www.w3.org/1999/xlink">
    <!-- Generator: Sketch 50 (54983) - http://www.bohemiancoding.com/sketch -->
    <title>指挥调度</title>
    <desc>Created with Sketch.</desc>
    <defs>
        <linearGradient x1="0%" y1="0%" x2="100%" y2="100%" id="linearGradient-1">
            <stop stop-color="#FAD961" offset="0%"></stop>
            <stop stop-color="#F76B1C" offset="100%"></stop>
        </linearGradient>
    </defs>
    <g id="Page-1" stroke="none" stroke-width="1" fill="none" fill-rule="evenodd">
        <g id="首页" transform="translate(-34.000000, -387.000000)" fill-rule="nonzero">
            <g id="母版">
                <g id="Group-19">
                    <g transform="translate(31.032292, 119.000000)">
                        <g id="指挥调度" transform="translate(0.000000, 268.000000)">
                            <rect id="Rectangle-path" fill="#000000" opacity="0" x="0" y="1" width="20.0208333" height="20"></rect>
                            <path d="M3.19082031,2.375 L5.44316406,13.8125 L7.13242187,13.8125 L5.75598958,7.875 C5.75598958,7.875 7.32011719,6.5 9.19707031,7 C9.19707031,7 10.2606771,7.3125 10.8863281,7.875 C10.8863281,7.875 12.0750651,8.625 13.1386719,7.5625 C13.1386719,7.5625 14.2648437,6.6875 15.3284505,5.125 C15.3284505,5.125 16.204362,4 16.5797526,3.4375 C16.5797526,3.4375 16.830013,3.0625 16.830013,3 C16.830013,3 13.3263672,4.75 9.32220052,1.4375 C9.32220052,1.4375 8.38372396,-0.3125 6.56933594,0.375 L3.19082031,2.375 Z" id="Shape" fill="url(#linearGradient-1)"></path>
                        </g>
                    </g>
                </g>
            </g>
        </g>
    </g>
</svg>