<?xml version="1.0" encoding="UTF-8"?>
<svg width="28px" height="29px" viewBox="0 0 28 29" version="1.1" xmlns="http://www.w3.org/2000/svg" xmlns:xlink="http://www.w3.org/1999/xlink">
    <!-- Generator: Sketch 50 (54983) - http://www.bohemiancoding.com/sketch -->
    <title>日历</title>
    <desc>Created with Sketch.</desc>
    <defs></defs>
    <g id="Page-4" stroke="none" stroke-width="1" fill="none" fill-rule="evenodd">
        <g id="首页-站所" transform="translate(-1497.000000, -590.000000)">
            <g id="执勤" transform="translate(1459.000000, 580.000000)">
                <g id="Group-5" transform="translate(17.100000, 0.000000)">
                    <g id="日历" transform="translate(20.700000, 9.900000)">
                        <rect id="Rectangle-path" fill="#FFFFFF" fill-rule="nonzero" opacity="0" x="0" y="0" width="28.8" height="28.8"></rect>
                        <path d="M19.9925235,8.17031973 C20.6749952,8.17031973 21.2678732,7.61643925 21.2678732,6.93275878 L21.2678732,1.30861997 C21.2678732,0.624939497 20.6749664,0.0704546437 19.9925234,0.0704546437 C19.3094762,0.0704546437 18.7562001,0.624939497 18.7562001,1.30861997 L18.7562001,6.93275881 C18.7562001,7.61643925 19.3094762,8.17031973 19.9925235,8.17031973 Z M17.5241075,3.18778428 L11.2644667,3.18778428 L11.2644667,5.0572208 L17.5241075,5.0572208 L17.5241075,3.18778428 Z M24.847734,3.18778428 L22.5212922,3.18778428 L22.5212922,5.04685983 L24.9367233,5.04685983 C25.6471984,5.04685983 26.2467823,5.64765249 26.2467823,6.35876075 L26.2467823,10.6850435 L2.54245382,10.6850435 L2.54245382,6.35876075 C2.54245382,5.64768127 3.1420377,5.04685983 3.8525128,5.04685983 L6.2837732,5.04685983 L6.2837732,3.18778428 L3.96101523,3.18778428 C2.15981724,3.18778428 0.686457787,4.66359007 0.686457787,6.46783881 L0.686457787,25.489985 C0.686457787,27.2936581 2.10556603,28.7694063 3.90676402,28.7694063 L24.847734,28.7694064 C26.6482701,28.7694064 28.1222627,27.2936581 28.1222627,25.489985 L28.1222627,6.46783881 C28.1222627,4.66359008 26.6482413,3.18778428 24.847734,3.18778428 Z M8.76131263,8.17031973 C9.44375555,8.17031973 10.0366624,7.61643925 10.0366624,6.93275878 L10.0366624,1.30861997 C10.0366624,0.624939497 9.44378432,0.0704546437 8.76131263,0.0704546437 C8.07829411,0.0704546437 7.52496047,0.624939497 7.52496047,1.30861997 L7.52496047,6.93275881 C7.52496047,7.61643925 8.07829411,8.17031973 8.76131263,8.17031973 Z" id="Shape" fill="#FFFFFF" fill-rule="nonzero"></path>
                        <path d="M26.2467535,25.5862845 C26.2467535,26.297364 25.6471696,26.8981566 24.9366945,26.8981566 L3.8525128,26.8981566 C3.1420377,26.8981566 2.54245382,26.297364 2.54245382,25.5862845 L2.54245382,12.5477742 L26.2467535,12.5477742 L26.2467535,25.5862845 Z" id="Path" fill="#FFFFFF"></path>
                        <path d="M7.50792243,18.1615521 C8.5443941,18.1615521 9.38406479,17.3200682 9.38406479,16.2817834 C9.38406479,15.2440453 8.5443941,14.4025903 7.50792243,14.4025903 C6.47208394,14.4025903 5.63178007,15.2440741 5.63178007,16.2817834 C5.63178007,17.3200682 6.47205514,18.1615521 7.50792243,18.1615521 Z" id="Path" fill="#1890FF"></path>
                        <path d="M14.3781412,18.1615521 C15.4140085,18.1615521 16.2542836,17.3200682 16.2542836,16.2817834 C16.2542836,15.2440453 15.4140373,14.4025903 14.3781412,14.4025903 C13.3416696,14.4025903 12.5019989,15.2440741 12.5019989,16.2817834 C12.5019988,17.3200682 13.3416696,18.1615521 14.3781412,18.1615521 Z" id="Path" fill="#1890FF"></path>
                        <path d="M7.47442195,25.0342172 C8.51089362,25.0342172 9.35053554,24.1927333 9.35053554,23.1550241 C9.35053554,22.1167104 8.51089362,21.2752266 7.47442195,21.2752266 C6.43855466,21.2752266 5.59827959,22.1167105 5.59827959,23.1550241 C5.59827956,24.1927333 6.43852589,25.0342172 7.47442195,25.0342172 Z" id="Path" fill="#1890FF"></path>
                        <path d="M14.3781412,25.0342172 C15.4140085,25.0342172 16.2542836,24.1927333 16.2542836,23.1550241 C16.2542836,22.1167104 15.4140373,21.2752266 14.3781412,21.2752266 C13.3416696,21.2752266 12.5019989,22.1167105 12.5019989,23.1550241 C12.5019988,24.1927333 13.3416696,25.0342172 14.3781412,25.0342172 Z" id="Path" fill="#1890FF"></path>
                        <path d="M21.2386034,18.1615521 C22.2744995,18.1615521 23.1147746,17.3200682 23.1147746,16.2817834 C23.1147746,15.2440453 22.2744995,14.4025903 21.2386034,14.4025903 C20.2021318,14.4025903 19.3624611,15.2440741 19.3624611,16.2817834 C19.3624898,17.3200682 20.2021318,18.1615521 21.2386034,18.1615521 Z" id="Path" fill="#1890FF"></path>
                    </g>
                </g>
            </g>
        </g>
    </g>
</svg>