<?xml version="1.0" encoding="UTF-8"?>
<svg width="19px" height="21px" viewBox="0 0 19 21" version="1.1" xmlns="http://www.w3.org/2000/svg" xmlns:xlink="http://www.w3.org/1999/xlink">
    <!-- Generator: Sketch 50.2 (55047) - http://www.bohemiancoding.com/sketch -->
    <title>执勤</title>
    <desc>Created with Sketch.</desc>
    <defs></defs>
    <g id="Page-8" stroke="none" stroke-width="1" fill="none" fill-rule="evenodd">
        <g id="Artboard" transform="translate(-220.000000, -147.000000)" fill="#1890FF" fill-rule="nonzero">
            <g id="执勤" transform="translate(217.000000, 145.000000)">
                <rect id="Rectangle-path" opacity="0" x="0" y="0" width="24" height="24"></rect>
                <path d="M3,22.9973679 C3.12836068,21.1285938 3.38770164,18.6018006 3.95877568,16.2855735 C4.07665793,15.6880922 4.50103405,15.1853656 4.51413208,15.1669411 C4.5691438,14.8116108 8.9019716,14.8116108 8.9019716,14.8116108 L9.61974355,14.7431768 C9.51757893,15.3801392 9.43899076,16.3513754 9.71404936,17.1831115 C10.0676961,18.2754231 10.633531,19.3598385 11.4010754,20.0046972 L11.563491,17.1015171 L13.0409486,17.1015171 L13.2950503,19.823084 C13.8320695,19.0518856 14.4581552,17.8358664 14.5236454,16.2882055 C14.5760375,15.0774505 14.8772922,14.5247145 15.1366331,14.2694031 C16.931063,14.3431012 19.1839239,14.6721107 20.0876879,15.1695731 C20.9495381,15.6433469 21.2193575,18.6044327 22,23 L3,22.9973679 Z M12.8601958,16.683017 L11.9328554,16.683017 L11.191507,16.0592149 L12.3048394,14.6036767 L13.4155522,15.8512809 L12.8601958,16.683017 Z M17.7798152,4.32541895 C17.3371019,3.4331451 14.7594099,2.09605036 11.9459534,2.00392769 C9.1351165,1.90917295 6.15662484,3.54895646 6.1802013,4.74918323 C6.20377775,5.94677793 7.67861575,6.46266487 7.67861575,6.46266487 C7.60264718,6.69428759 7.64194127,7.59445767 7.64194127,7.59445767 C7.64194127,7.59445767 7.71005101,7.71816525 7.83841169,7.89188228 C7.40355715,13.6482331 12.4122432,13.7456199 12.4122432,13.7456199 C16.7529298,13.2929028 16.4071419,8.5551655 16.3652282,7.87082567 C16.3495105,7.62077843 16.3180753,7.42074063 16.2814008,7.24175945 C16.3364125,6.85484424 16.1844754,6.45476865 16.1844754,6.45476865 C16.81842,6.20208933 18.2251482,5.21506073 17.7798152,4.32541895 Z M11.2360403,3.87533391 C11.230801,3.83848485 11.2255618,3.7990037 11.2255618,3.75952256 C11.2255618,3.27522053 11.649938,2.88040909 12.1764787,2.88040909 C12.7030194,2.88040909 13.1273956,3.27522053 13.1273956,3.75952256 C13.1273956,3.82006031 13.1195367,3.88059807 13.1064387,3.94113582 C13.3893561,3.91481506 13.69585,3.89112637 13.9735282,3.88586222 C13.9735282,3.88586222 13.1824073,4.25698497 12.7318351,4.4754473 C12.6637254,4.5201926 12.592996,4.55440959 12.5117882,4.58336243 C12.506549,4.5859945 12.5013098,4.59125866 12.493451,4.59389073 C12.493451,4.59389073 12.4672549,4.60178696 12.4253412,4.60705111 C12.3467531,4.62810772 12.2629257,4.6412681 12.1764787,4.6412681 C12.1607611,4.6412681 12.1450434,4.63600395 12.1267062,4.63600395 C11.9171377,4.63600395 11.649938,4.59389073 11.4351303,4.41227747 C11.4351303,4.41227747 11.1102992,4.18855099 10.3768096,3.88323014 C10.3768096,3.88586222 10.7671308,3.83585277 11.2360403,3.87533391 Z M15.469323,6.4047592 L8.28112505,6.4047592 L8.28112505,5.55196649 L15.4719426,5.55196649 L15.4719426,6.4047592 L15.469323,6.4047592 Z" id="Shape"></path>
            </g>
        </g>
    </g>
</svg>